<?xml version="1.0" encoding="UTF-8" standalone="no"?>
<svg width="140px" height="46px" viewBox="0 0 140 46" version="1.1" xmlns="http://www.w3.org/2000/svg" xmlns:xlink="http://www.w3.org/1999/xlink">
    <!-- Generator: Sketch 40.3 (33839) - http://www.bohemiancoding.com/sketch -->
    <title>btn-AppStore</title>
    <desc>Created with Sketch.</desc>
    <defs>
        <rect id="path-1" x="0" y="0" width="140" height="46" rx="6"></rect>
        <mask id="mask-2" maskContentUnits="userSpaceOnUse" maskUnits="objectBoundingBox" x="0" y="0" width="140" height="46" fill="white">
            <use xlink:href="#path-1"></use>
        </mask>
    </defs>
    <g id="Symbols" stroke="none" stroke-width="1" fill="none" fill-rule="evenodd">
        <g id="btn-AppStore">
            <g>
                <use id="Rectangle-3" stroke="#6A6A6A" mask="url(#mask-2)" stroke-width="2" fill="#FFFFFF" xlink:href="#path-1"></use>
                <path d="M13.2924099,8 C12.0263469,8 11,9.1216205 11,10.5106012 L11,36.4893988 C11,37.8759656 12.0252116,39 13.2924099,39 L24.7075901,39 C25.9736531,39 27,37.8783795 27,36.4893988 L27,10.5106012 C27,9.12403444 25.9747884,8 24.7075901,8 L13.2924099,8 L13.2924099,8 Z M12.5,12.0655738 L12.5,34.9344262 L25.5,34.9344262 L25.5,12.0655738 L12.5,12.0655738 L12.5,12.0655738 Z M19,37.9836066 C19.5522847,37.9836066 20,37.5285517 20,36.9672131 C20,36.4058745 19.5522847,35.9508197 19,35.9508197 C18.4477153,35.9508197 18,36.4058745 18,36.9672131 C18,37.5285517 18.4477153,37.9836066 19,37.9836066 L19,37.9836066 Z M17,10.0327869 C17,10.3134562 17.171875,10.5409836 17.398159,10.5409836 L20.601841,10.5409836 C20.8217381,10.5409836 21,10.3052478 21,10.0327869 C21,9.75211759 20.828125,9.52459016 20.601841,9.52459016 L17.398159,9.52459016 C17.1782619,9.52459016 17,9.76032595 17,10.0327869 Z" id="iPhone-Vector" fill="#2684FF"></path>
                <text id="App-Store" font-family="HelveticaNeue, Helvetica Neue" font-size="21.8765961" font-weight="normal" letter-spacing="-0.809999883" fill="#2684FF">
                    <tspan x="34.1025641" y="36.0769231">App Store</tspan>
                </text>
                <text id="Baixe-na" font-family="HelveticaNeue, Helvetica Neue" font-size="12" font-weight="normal" letter-spacing="0.239999995" fill="#2684FF">
                    <tspan x="36.1025641" y="17.2307692">Baixe na</tspan>
                </text>
            </g>
        </g>
    </g>
</svg>