<?xml version="1.0" encoding="UTF-8" standalone="no"?>
<svg width="150px" height="150px" viewBox="0 0 150 150" version="1.1" xmlns="http://www.w3.org/2000/svg" xmlns:xlink="http://www.w3.org/1999/xlink">
    <!-- Generator: Sketch 40.3 (33839) - http://www.bohemiancoding.com/sketch -->
    <title>feature03-custos</title>
    <desc>Created with Sketch.</desc>
    <defs>
        <rect id="path-1" x="0" y="0" width="150" height="150"></rect>
        <circle id="path-3" cx="32" cy="32" r="32"></circle>
        <mask id="mask-4" maskContentUnits="userSpaceOnUse" maskUnits="objectBoundingBox" x="0" y="0" width="64" height="64" fill="white">
            <use xlink:href="#path-3"></use>
        </mask>
        <mask id="mask-5" maskContentUnits="userSpaceOnUse" maskUnits="objectBoundingBox" x="0" y="0" width="64" height="64" fill="white">
            <use xlink:href="#path-3"></use>
        </mask>
        <path d="M32.2461538,64 C49.9192658,64 64,49.673112 64,32 C64,14.326888 49.673112,0 32,0 C14.326888,0 0,14.326888 0,32 C0,49.673112 14.5730419,64 32.2461538,64 Z" id="path-6"></path>
        <mask id="mask-7" maskContentUnits="userSpaceOnUse" maskUnits="objectBoundingBox" x="0" y="0" width="64" height="64" fill="white">
            <use xlink:href="#path-6"></use>
        </mask>
        <mask id="mask-8" maskContentUnits="userSpaceOnUse" maskUnits="objectBoundingBox" x="0" y="0" width="64" height="64" fill="white">
            <use xlink:href="#path-6"></use>
        </mask>
        <circle id="path-9" cx="32" cy="32" r="32"></circle>
        <mask id="mask-10" maskContentUnits="userSpaceOnUse" maskUnits="objectBoundingBox" x="0" y="0" width="64" height="64" fill="white">
            <use xlink:href="#path-9"></use>
        </mask>
        <mask id="mask-11" maskContentUnits="userSpaceOnUse" maskUnits="objectBoundingBox" x="0" y="0" width="64" height="64" fill="white">
            <use xlink:href="#path-9"></use>
        </mask>
        <circle id="path-12" cx="32" cy="32" r="32"></circle>
        <mask id="mask-13" maskContentUnits="userSpaceOnUse" maskUnits="objectBoundingBox" x="0" y="0" width="64" height="64" fill="white">
            <use xlink:href="#path-12"></use>
        </mask>
        <mask id="mask-14" maskContentUnits="userSpaceOnUse" maskUnits="objectBoundingBox" x="0" y="0" width="64" height="64" fill="white">
            <use xlink:href="#path-12"></use>
        </mask>
        <circle id="path-15" cx="32" cy="32" r="32"></circle>
        <mask id="mask-16" maskContentUnits="userSpaceOnUse" maskUnits="objectBoundingBox" x="0" y="0" width="64" height="64" fill="white">
            <use xlink:href="#path-15"></use>
        </mask>
        <mask id="mask-17" maskContentUnits="userSpaceOnUse" maskUnits="objectBoundingBox" x="0" y="0" width="64" height="64" fill="white">
            <use xlink:href="#path-15"></use>
        </mask>
    </defs>
    <g id="Symbols" stroke="none" stroke-width="1" fill="none" fill-rule="evenodd">
        <g id="feature03-custos">
            <g>
                <mask id="mask-2" fill="white">
                    <use xlink:href="#path-1"></use>
                </mask>
                <g id="Mask"></g>
                <g id="pie-chart" mask="url(#mask-2)">
                    <g transform="translate(44.000000, 43.000000)">
                        <g id="slice-05" transform="translate(32.000000, 32.000000) scale(1, -1) translate(-32.000000, -32.000000) " stroke-dasharray="201.8461538461539,196.9230769230769">
                            <use stroke="#0076FF" mask="url(#mask-4)" stroke-width="33.4769231" xlink:href="#path-3"></use>
                            <use stroke="#8CBEFF" mask="url(#mask-5)" stroke-width="29.5384615" xlink:href="#path-3"></use>
                        </g>
                        <g id="slice-04" transform="translate(32.000000, 32.000000) scale(1, -1) translate(-32.000000, -32.000000) " stroke-dasharray="182.1538461538462,196.9230769230769">
                            <use stroke="#0076FF" mask="url(#mask-7)" stroke-width="33.4769231" xlink:href="#path-6"></use>
                            <use stroke="#73B0FF" mask="url(#mask-8)" stroke-width="29.5384615" xlink:href="#path-6"></use>
                        </g>
                        <g id="slice-03" transform="translate(32.000000, 32.000000) scale(1, -1) translate(-32.000000, -32.000000) " stroke-dasharray="157.5384615384615,196.9230769230769">
                            <use stroke="#0076FF" mask="url(#mask-10)" stroke-width="33.4769231" xlink:href="#path-9"></use>
                            <use stroke="#59A1FF" mask="url(#mask-11)" stroke-width="29.5384615" xlink:href="#path-9"></use>
                        </g>
                        <g id="slice-02" transform="translate(32.000000, 32.000000) scale(1, -1) translate(-32.000000, -32.000000) " stroke-dasharray="128,196.9230769230769">
                            <use stroke="#0076FF" mask="url(#mask-13)" stroke-width="33.4769231" xlink:href="#path-12"></use>
                            <use stroke="#3F93FF" mask="url(#mask-14)" stroke-width="29.5384615" xlink:href="#path-12"></use>
                        </g>
                        <g id="slice-01" transform="translate(32.000000, 32.000000) scale(1, -1) translate(-32.000000, -32.000000) " stroke-dasharray="81.23076923076924,147.6923076923077">
                            <use stroke="#0076FF" mask="url(#mask-16)" stroke-width="33.4769231" xlink:href="#path-15"></use>
                            <use stroke="#2684FF" mask="url(#mask-17)" stroke-width="29.5384615" xlink:href="#path-15"></use>
                        </g>
                    </g>
                </g>
                <path d="M117.333333,27 L105.666667,27 C104.75,27 104,27.75 104,28.6666667 L104,40.3333333 C104,41.25 104.75,42 105.666667,42 L117.333333,42 C118.25,42 119,41.25 119,40.3333333 L119,28.6666667 C119,27.75 118.25,27 117.333333,27 Z M112.463373,36.7425955 C112.463373,36.5647117 112.440803,36.4080069 112.39566,36.2724763 C112.350518,36.1369458 112.27665,36.0141231 112.174054,35.9040046 C112.071457,35.793886 111.93911,35.6922396 111.777008,35.5990624 C111.614906,35.5058852 111.416899,35.4148269 111.182979,35.325885 C110.780802,35.1691779 110.415565,35.0050613 110.087258,34.8335305 C109.75895,34.6619997 109.477841,34.464001 109.243921,34.2395286 C109.010002,34.0150561 108.828409,33.7524697 108.699138,33.4517613 C108.569867,33.1510529 108.505232,32.793173 108.505232,32.3781108 C108.505232,32.0181078 108.562685,31.6898747 108.677593,31.3934017 C108.792501,31.0969286 108.956652,30.8385775 109.170052,30.6183403 C109.383452,30.3981032 109.638913,30.2191633 109.936442,30.0815151 C110.233971,29.9438669 110.567404,29.8559851 110.93675,29.8178672 L110.93675,28.4583333 L111.921668,28.4583333 L111.921668,29.836926 C112.274599,29.88775 112.594694,29.991514 112.881964,30.1482212 C113.169233,30.3049283 113.413408,30.5082211 113.614497,30.7581055 C113.815585,31.0079899 113.970503,31.3033997 114.079255,31.6443437 C114.188007,31.9852877 114.242382,32.3675204 114.242382,32.7910533 L112.463373,32.7910533 C112.463373,32.2828138 112.361805,31.9026987 112.158664,31.6506966 C111.955524,31.3986946 111.683648,31.2726954 111.343029,31.2726954 C111.158355,31.2726954 110.999334,31.3012835 110.865959,31.3584604 C110.732584,31.4156373 110.622807,31.4939897 110.536627,31.59352 C110.450446,31.6930502 110.386837,31.8105788 110.345799,31.9461094 C110.30476,32.0816399 110.284241,32.2277565 110.284241,32.3844637 C110.284241,32.5411709 110.30476,32.6830523 110.345799,32.8101122 C110.386837,32.937172 110.457627,33.0547007 110.558172,33.1627015 C110.658716,33.2707024 110.792089,33.3723488 110.958295,33.4676437 C111.124501,33.5629386 111.330716,33.6614085 111.576947,33.7630564 C111.97502,33.9282343 112.337179,34.0976449 112.663435,34.2712934 C112.989691,34.4449419 113.269774,34.6450582 113.503693,34.8716483 C113.737613,35.0982384 113.919205,35.3618836 114.048476,35.662592 C114.177748,35.9633004 114.242382,36.3190627 114.242382,36.7298896 C114.242382,37.1025985 114.183903,37.4371845 114.066944,37.7336576 C113.949984,38.0301306 113.784807,38.2863641 113.571407,38.5023659 C113.358007,38.7183677 113.100494,38.8920136 112.798861,39.0233088 C112.497228,39.154604 112.161744,39.2393093 111.792398,39.2774273 L111.792398,40.5416667 L110.813635,40.5416667 L110.813635,39.2837802 C110.473016,39.2456623 110.143687,39.1630746 109.825639,39.0360147 C109.50759,38.9089549 109.225455,38.7257796 108.979224,38.4864835 C108.732994,38.2471874 108.536012,37.9454248 108.388273,37.5811865 C108.240535,37.2169482 108.166667,36.7807158 108.166667,36.2724763 L109.945676,36.2724763 C109.945676,36.5731847 109.983636,36.8241242 110.059557,37.0253023 C110.135478,37.2264804 110.237047,37.3874205 110.364266,37.5081274 C110.491485,37.6288343 110.636144,37.7135396 110.798246,37.7622459 C110.960348,37.8109522 111.125525,37.8353049 111.293783,37.8353049 C111.486664,37.8353049 111.655945,37.8077757 111.801631,37.7527164 C111.947318,37.6976572 112.069405,37.6214224 112.167898,37.5240098 C112.26639,37.4265972 112.340258,37.3111863 112.389504,37.1777734 C112.438751,37.0443605 112.463373,36.8993027 112.463373,36.7425955 Z" id="Combined-Shape" stroke="#0076FF" mask="url(#mask-2)"></path>
                <path d="M42,16 L28,16 C26.9,16 26,16.9 26,18 L26,32 C26,33.1 26.9,34 28,34 L42,34 C43.1,34 44,33.1 44,32 L44,18 C44,16.9 43.1,16 42,16 Z M36.156048,27.6911146 C36.156048,27.477654 36.128963,27.2896082 36.0747922,27.1269716 C36.0206215,26.964335 35.9319797,26.8169477 35.8088643,26.6848055 C35.6857488,26.5526632 35.5269323,26.4306876 35.33241,26.3188749 C35.1378876,26.2070622 34.9002784,26.0977923 34.6195753,25.991062 C34.1369628,25.8030134 33.6986785,25.6060736 33.3047091,25.4002366 C32.9107398,25.1943996 32.5734086,24.9568012 32.2927054,24.6874343 C32.0120023,24.4180674 31.7940913,24.1029636 31.6389658,23.7421136 C31.4838404,23.3812635 31.4062789,22.9518076 31.4062789,22.4537329 C31.4062789,22.0217294 31.4752225,21.6278497 31.6131117,21.272082 C31.751001,20.9163144 31.9479827,20.6062929 32.2040628,20.3420084 C32.4601429,20.0777239 32.7666957,19.8629959 33.1237304,19.6978181 C33.4807651,19.5326403 33.8808842,19.4271821 34.3240997,19.3814406 L34.3240997,17.75 L35.5060018,17.75 L35.5060018,19.4043113 C35.9295189,19.4653 36.3136332,19.5898168 36.6583564,19.7778654 C37.0030796,19.965914 37.2960899,20.2098653 37.5373961,20.5097266 C37.7787023,20.8095879 37.9646038,21.1640796 38.0951062,21.5732124 C38.2256085,21.9823452 38.2908587,22.4410244 38.2908587,22.9492639 L36.156048,22.9492639 C36.156048,22.3393766 36.0341656,21.8832385 35.790397,21.580836 C35.5466285,21.2784335 35.2203775,21.1272345 34.8116343,21.1272345 C34.5900266,21.1272345 34.3992006,21.1615401 34.2391505,21.2301525 C34.0791005,21.2987648 33.9473689,21.3927877 33.843952,21.512224 C33.740535,21.6316603 33.6642046,21.7726946 33.6149584,21.9353312 C33.5657123,22.0979679 33.5410896,22.2733079 33.5410896,22.4613565 C33.5410896,22.6494051 33.5657123,22.8196627 33.6149584,22.9721346 C33.6642046,23.1246064 33.749153,23.2656408 33.8698061,23.3952419 C33.9904592,23.5248429 34.1505069,23.6468186 34.3499538,23.7611725 C34.5494008,23.8755263 34.7968591,23.9936902 35.0923361,24.1156677 C35.5700239,24.3138811 36.0046148,24.5171739 36.3961219,24.7255521 C36.7876289,24.9339302 37.123729,25.1740698 37.4044321,25.4459779 C37.6851353,25.717886 37.9030463,26.0342604 38.0581717,26.3951104 C38.2132972,26.7559604 38.2908587,27.1828752 38.2908587,27.6758675 C38.2908587,28.1231183 38.220684,28.5246214 38.0803324,28.8803891 C37.9399808,29.2361567 37.741768,29.543637 37.4856879,29.8028391 C37.2296078,30.0620413 36.9205928,30.2704163 36.5586334,30.4279706 C36.1966741,30.5855248 35.7940927,30.6871712 35.3508772,30.7329127 L35.3508772,32.25 L34.176362,32.25 L34.176362,30.7405363 C33.7676188,30.6947947 33.3724242,30.5956895 32.9907664,30.4432177 C32.6091086,30.2907458 32.2705463,30.0709355 31.9750693,29.7837802 C31.6795922,29.4966249 31.4432142,29.1345097 31.265928,28.6974238 C31.0886418,28.2603378 31,27.736859 31,27.1269716 L33.1348107,27.1269716 C33.1348107,27.4878216 33.1803627,27.788949 33.2714681,28.0303628 C33.3625736,28.2717765 33.484456,28.4649046 33.6371191,28.6097529 C33.7897822,28.7546011 33.9633724,28.8562475 34.1578947,28.9146951 C34.3524171,28.9731426 34.55063,29.0023659 34.7525392,29.0023659 C34.9839962,29.0023659 35.1871336,28.9693309 35.3619575,28.9032597 C35.5367814,28.8371886 35.6832866,28.7457069 35.8014774,28.6288118 C35.9196682,28.5119167 36.00831,28.3734235 36.0674054,28.2133281 C36.1265008,28.0532326 36.156048,27.8791632 36.156048,27.6911146 Z" id="Combined-Shape" fill="#2684FF" mask="url(#mask-2)"></path>
                <path d="M126.777778,110 L111.222222,110 C110,110 109,110.9 109,112 L109,126 C109,127.1 110,128 111.222222,128 L126.777778,128 C128,128 129,127.1 129,126 L129,112 C129,110.9 128,110 126.777778,110 Z M120.284498,121.691115 C120.284498,121.477654 120.254403,121.289608 120.194214,121.126972 C120.134024,120.964335 120.035533,120.816948 119.898738,120.684805 C119.761943,120.552663 119.58548,120.430688 119.369344,120.318875 C119.153208,120.207062 118.889198,120.097792 118.577306,119.991062 C118.04107,119.803013 117.554087,119.606074 117.116343,119.400237 C116.6786,119.1944 116.303787,118.956801 115.991895,118.687434 C115.680003,118.418067 115.437879,118.102964 115.265518,117.742114 C115.093156,117.381264 115.006977,116.951808 115.006977,116.453733 C115.006977,116.021729 115.083581,115.62785 115.236791,115.272082 C115.390001,114.916314 115.60887,114.606293 115.893403,114.342008 C116.177937,114.077724 116.518551,113.862996 116.915256,113.697818 C117.311961,113.53264 117.756538,113.427182 118.249,113.381441 L118.249,111.75 L119.562224,111.75 L119.562224,113.404311 C120.032799,113.4653 120.459592,113.589817 120.842618,113.777865 C121.225644,113.965914 121.551211,114.209865 121.819329,114.509727 C122.087447,114.809588 122.294004,115.16408 122.439007,115.573212 C122.584009,115.982345 122.65651,116.441024 122.65651,116.949264 L120.284498,116.949264 C120.284498,116.339377 120.149073,115.883238 119.878219,115.580836 C119.607365,115.278433 119.244864,115.127234 118.790705,115.127234 C118.544474,115.127234 118.332445,115.16154 118.154612,115.230152 C117.976778,115.298765 117.83041,115.392788 117.715502,115.512224 C117.600594,115.63166 117.515783,115.772695 117.461065,115.935331 C117.406347,116.097968 117.378988,116.273308 117.378988,116.461356 C117.378988,116.649405 117.406347,116.819663 117.461065,116.972135 C117.515783,117.124606 117.61017,117.265641 117.744229,117.395242 C117.878288,117.524843 118.056119,117.646819 118.277726,117.761172 C118.499334,117.875526 118.774288,117.99369 119.102596,118.115668 C119.63336,118.313881 120.116239,118.517174 120.551247,118.725552 C120.986254,118.93393 121.359699,119.17407 121.671591,119.445978 C121.983484,119.717886 122.225607,120.03426 122.397969,120.39511 C122.57033,120.75596 122.65651,121.182875 122.65651,121.675868 C122.65651,122.123118 122.578538,122.524621 122.422592,122.880389 C122.266645,123.236157 122.046409,123.543637 121.761875,123.802839 C121.477342,124.062041 121.133992,124.270416 120.731815,124.427971 C120.329638,124.585525 119.882325,124.687171 119.389864,124.732913 L119.389864,126.25 L118.084847,126.25 L118.084847,124.740536 C117.630688,124.694795 117.191582,124.59569 116.767518,124.443218 C116.343454,124.290746 115.967274,124.070936 115.638966,123.78378 C115.310658,123.496625 115.048016,123.13451 114.851031,122.697424 C114.654046,122.260338 114.555556,121.736859 114.555556,121.126972 L116.927567,121.126972 C116.927567,121.487822 116.978181,121.788949 117.079409,122.030363 C117.180637,122.271777 117.316062,122.464905 117.485688,122.609753 C117.655314,122.754601 117.848192,122.856248 118.064327,122.914695 C118.280463,122.973143 118.5007,123.002366 118.725044,123.002366 C118.982218,123.002366 119.207926,122.969331 119.402175,122.90326 C119.596424,122.837189 119.759207,122.745707 119.89053,122.628812 C120.021854,122.511917 120.120344,122.373424 120.186006,122.213328 C120.251668,122.053233 120.284498,121.879163 120.284498,121.691115 Z" id="Combined-Shape" stroke="#0076FF" mask="url(#mask-2)"></path>
                <path d="M24.5555556,79 L14.4444444,79 C13.65,79 13,79.65 13,80.4444444 L13,90.5555556 C13,91.35 13.65,92 14.4444444,92 L24.5555556,92 C25.35,92 26,91.35 26,90.5555556 L26,80.4444444 C26,79.65 25.35,79 24.5555556,79 Z M20.3349236,87.4435828 C20.3349236,87.2894168 20.3153622,87.153606 20.2762388,87.0361462 C20.2371155,86.9186864 20.1730964,86.81224 20.0841797,86.7168039 C19.9952631,86.6213679 19.8805622,86.5332743 19.7400739,86.4525207 C19.5995855,86.3717671 19.4279789,86.29285 19.2252488,86.215767 C18.8766954,86.0799541 18.5601567,85.9377198 18.2756233,85.7890598 C17.9910899,85.6403997 17.7474618,85.4688009 17.5447317,85.2742581 C17.3420017,85.0797153 17.1846215,84.8521404 17.0725864,84.5915265 C16.9605514,84.3309125 16.9045347,84.0207499 16.9045347,83.6610293 C16.9045347,83.3490268 16.9543273,83.0645581 17.053914,82.8076148 C17.1535007,82.5506715 17.2957653,82.3267671 17.480712,82.135895 C17.6656587,81.9450228 17.887058,81.7899415 18.1449164,81.6706464 C18.4027748,81.5513513 18.6917497,81.4751871 19.0118498,81.4421515 L19.0118498,80.2638889 L19.8654458,80.2638889 L19.8654458,81.4586692 C20.1713192,81.5027167 20.4487351,81.5926455 20.6977019,81.7284583 C20.9466686,81.8642712 21.1582871,82.0404583 21.3325639,82.2570248 C21.5068406,82.4735913 21.6411028,82.7296131 21.7353545,83.0250979 C21.8296062,83.3205826 21.8767313,83.651851 21.8767313,84.0189128 L20.3349236,84.0189128 C20.3349236,83.5784386 20.2468974,83.2490056 20.0708423,83.0306038 C19.8947873,82.8122019 19.6591616,82.7030027 19.3639581,82.7030027 C19.2039081,82.7030027 19.0660893,82.727779 18.9504976,82.7773323 C18.8349059,82.8268857 18.7397665,82.8947911 18.6650764,82.9810506 C18.5903864,83.0673102 18.5352589,83.1691683 18.4996922,83.2866281 C18.4641255,83.4040879 18.4463425,83.5307223 18.4463425,83.6665352 C18.4463425,83.8023481 18.4641255,83.925312 18.4996922,84.0354305 C18.5352589,84.1455491 18.5966105,84.2474072 18.6837488,84.341008 C18.7708872,84.4346088 18.8864772,84.5227023 19.0305222,84.6052912 C19.1745673,84.6878801 19.3532871,84.7732207 19.5666872,84.8613156 C19.911684,85.0044697 20.2255552,85.1512922 20.5083102,85.3017876 C20.7910653,85.452283 21.0338043,85.6257171 21.2365343,85.8220952 C21.4392644,86.0184733 21.5966446,86.2469658 21.7086796,86.5075797 C21.8207146,86.7681937 21.8767313,87.076521 21.8767313,87.432571 C21.8767313,87.7555854 21.8260495,88.0455599 21.7246845,88.3025032 C21.6233195,88.5594465 21.4801658,88.7815156 21.295219,88.9687171 C21.1102723,89.1559187 20.8870948,89.3064118 20.6256797,89.420201 C20.3642646,89.5339901 20.0735114,89.6074014 19.7534113,89.640437 L19.7534113,90.7361111 L18.9051503,90.7361111 L18.9051503,89.6459429 C18.6099469,89.6129073 18.3245286,89.5413313 18.0488868,89.4312128 C17.7732451,89.3210942 17.5287279,89.1623423 17.3153278,88.9549524 C17.1019277,88.7475624 16.9312102,88.4860348 16.8031702,88.1703616 C16.6751302,87.8546884 16.6111111,87.4766204 16.6111111,87.0361462 L18.1529188,87.0361462 C18.1529188,87.2967601 18.1858175,87.514241 18.2516159,87.6885953 C18.3174142,87.8629497 18.4054404,88.0024311 18.5156971,88.1070438 C18.6259538,88.2116564 18.7513245,88.2850677 18.8918129,88.3272798 C19.0323012,88.3694919 19.175455,88.3905976 19.3212783,88.3905976 C19.4884417,88.3905976 19.6351521,88.366739 19.7614138,88.3190209 C19.8876755,88.2713029 19.9934847,88.2052327 20.0788448,88.1208085 C20.1642048,88.0363843 20.2282239,87.9363614 20.2709039,87.8207369 C20.3135839,87.7051125 20.3349236,87.5793957 20.3349236,87.4435828 Z" id="Combined-Shape" stroke="#0076FF" mask="url(#mask-2)"></path>
                <path d="M56.6666667,116 L40.3333333,116 C39.05,116 38,117.05 38,118.333333 L38,134.666667 C38,135.95 39.05,137 40.3333333,137 L56.6666667,137 C57.95,137 59,135.95 59,134.666667 L59,118.333333 C59,117.05 57.95,116 56.6666667,116 Z M49.8487227,129.639634 C49.8487227,129.390596 49.8171235,129.17121 49.7539243,128.981467 C49.690725,128.791724 49.5873096,128.619772 49.443675,128.465606 C49.3000403,128.31144 49.1147544,128.169135 48.8878116,128.038687 C48.6608689,127.908239 48.3836581,127.780758 48.0561711,127.656239 C47.4931233,127.436849 46.9817916,127.207086 46.5221607,126.966943 C46.0625298,126.7268 45.6689767,126.449601 45.3414897,126.13534 C45.0140027,125.821079 44.7597731,125.453458 44.5787935,125.032466 C44.3978138,124.611474 44.3073253,124.110442 44.3073253,123.529355 C44.3073253,123.025351 44.3877595,122.565825 44.5486303,122.150762 C44.7095012,121.7357 44.9393132,121.374008 45.2380733,121.065676 C45.5368333,120.757345 45.8944783,120.506829 46.3110188,120.314121 C46.7275593,120.121414 47.1943649,119.998379 47.7114497,119.945014 L47.7114497,118.041667 L49.0903355,118.041667 L49.0903355,119.971696 C49.5844387,120.04285 50.0325721,120.18812 50.4347492,120.40751 C50.8369262,120.6269 51.1787715,120.91151 51.4602955,121.261348 C51.7418194,121.611186 51.9587045,122.02476 52.1109572,122.502081 C52.26321,122.979403 52.3393352,123.514529 52.3393352,124.107475 L49.8487227,124.107475 C49.8487227,123.395939 49.7065265,122.863778 49.4221299,122.510975 C49.1377333,122.158172 48.7571071,121.981774 48.2802401,121.981774 C48.0216977,121.981774 47.7990673,122.021797 47.6123423,122.101845 C47.4256172,122.181892 47.2719304,122.291586 47.1512773,122.430928 C47.0306242,122.57027 46.9415721,122.73481 46.8841182,122.924553 C46.8266643,123.114296 46.7979378,123.318859 46.7979378,123.538249 C46.7979378,123.757639 46.8266643,123.956273 46.8841182,124.134157 C46.9415721,124.312041 47.0406785,124.476581 47.1814404,124.627782 C47.3222024,124.778983 47.5089247,124.921288 47.7416128,125.054701 C47.9743009,125.188114 48.2630023,125.325972 48.6077255,125.468279 C49.1650279,125.699528 49.6720507,125.936703 50.1288089,126.179811 C50.5855671,126.422919 50.9776838,126.703081 51.3051708,127.020308 C51.6326578,127.337534 51.8868874,127.706637 52.067867,128.127629 C52.2488467,128.548621 52.3393352,129.046688 52.3393352,129.621845 C52.3393352,130.143638 52.2574647,130.612058 52.0937211,131.027121 C51.9299776,131.442183 51.6987293,131.80091 51.3999692,132.103312 C51.1012091,132.405715 50.7406916,132.648819 50.3184057,132.832632 C49.8961198,133.016446 49.4264415,133.135033 48.9093567,133.188398 L48.9093567,134.958333 L47.539089,134.958333 L47.539089,133.197292 C47.0622219,133.143927 46.6011616,133.028304 46.1558941,132.850421 C45.7106267,132.672537 45.3156373,132.416091 44.9709141,132.081077 C44.626191,131.746062 44.3504165,131.323595 44.1435826,130.813661 C43.9367487,130.303727 43.8333333,129.693002 43.8333333,128.981467 L46.3239458,128.981467 C46.3239458,129.402459 46.3770899,129.753774 46.4833795,130.035423 C46.5896691,130.317073 46.7318653,130.542389 46.9099723,130.711378 C47.0880793,130.880368 47.2906011,130.998955 47.5175439,131.067144 C47.7444866,131.135333 47.9757349,131.169427 48.2112958,131.169427 C48.4813289,131.169427 48.7183226,131.130886 48.9222838,131.053803 C49.126245,130.97672 49.2971677,130.869991 49.4350569,130.733614 C49.5729462,130.597236 49.6763616,130.435661 49.7453062,130.248883 C49.8142509,130.062105 49.8487227,129.859024 49.8487227,129.639634 Z" id="Combined-Shape" fill="#2684FF" mask="url(#mask-2)"></path>
                <path d="M139,74 L132,74 C131.45,74 131,74.45 131,75 L131,82 C131,82.55 131.45,83 132,83 L139,83 C139.55,83 140,82.55 140,82 L140,75 C140,74.45 139.55,74 139,74 Z M136.078024,79.8455573 C136.078024,79.738827 136.064482,79.6448041 136.037396,79.5634858 C136.010311,79.4821675 135.96599,79.4084739 135.904432,79.3424027 C135.842874,79.2763316 135.763466,79.2153438 135.666205,79.1594374 C135.568944,79.1035311 135.450139,79.0488962 135.309788,78.995531 C135.068481,78.9015067 134.849339,78.8030368 134.652355,78.7001183 C134.45537,78.5971998 134.286704,78.4784006 134.146353,78.3437171 C134.006001,78.2090337 133.897046,78.0514818 133.819483,77.8710568 C133.74192,77.6906318 133.703139,77.4759038 133.703139,77.2268665 C133.703139,77.0108647 133.737611,76.8139248 133.806556,76.636041 C133.8755,76.4581572 133.973991,76.3031465 134.102031,76.1710042 C134.230071,76.0388619 134.383348,75.931498 134.561865,75.848909 C134.740383,75.7663201 134.940442,75.7135911 135.16205,75.6907203 L135.16205,74.875 L135.753001,74.875 L135.753001,75.7021556 C135.964759,75.73265 136.156817,75.7949084 136.329178,75.8889327 C136.50154,75.982957 136.648045,76.1049327 136.768698,76.2548633 C136.889351,76.4047939 136.982302,76.5820398 137.047553,76.7866062 C137.112804,76.9911726 137.145429,77.2205122 137.145429,77.474632 L136.078024,77.474632 C136.078024,77.1696883 136.017083,76.9416192 135.895199,76.790418 C135.773314,76.6392167 135.610189,76.5636172 135.405817,76.5636172 C135.295013,76.5636172 135.1996,76.5807701 135.119575,76.6150762 C135.03955,76.6493824 134.973684,76.6963938 134.921976,76.756112 C134.870268,76.8158301 134.832102,76.8863473 134.807479,76.9676656 C134.782856,77.0489839 134.770545,77.1366539 134.770545,77.2306782 C134.770545,77.3247025 134.782856,77.4098314 134.807479,77.4860673 C134.832102,77.5623032 134.874576,77.6328204 134.934903,77.6976209 C134.99523,77.7624215 135.075253,77.8234093 135.174977,77.8805862 C135.2747,77.9377632 135.39843,77.9968451 135.546168,78.0578339 C135.785012,78.1569406 136.002307,78.2585869 136.198061,78.362776 C136.393814,78.4669651 136.561864,78.5870349 136.702216,78.722989 C136.842568,78.858943 136.951523,79.0171302 137.029086,79.1975552 C137.106649,79.3779802 137.145429,79.5914376 137.145429,79.8379338 C137.145429,80.0615591 137.110342,80.2623107 137.040166,80.4401945 C136.96999,80.6180784 136.870884,80.7718185 136.742844,80.9014196 C136.614804,81.0310206 136.460296,81.1352082 136.279317,81.2139853 C136.098337,81.2927624 135.897046,81.3435856 135.675439,81.3664564 L135.675439,82.125 L135.088181,82.125 L135.088181,81.3702681 C134.883809,81.3473974 134.686212,81.2978448 134.495383,81.2216088 C134.304554,81.1453729 134.135273,81.0354678 133.987535,80.8918901 C133.839796,80.7483125 133.721607,80.5672549 133.632964,80.3487119 C133.544321,80.1301689 133.5,79.8684295 133.5,79.5634858 L134.567405,79.5634858 C134.567405,79.7439108 134.590181,79.8944745 134.635734,80.0151814 C134.681287,80.1358883 134.742228,80.2324523 134.81856,80.3048764 C134.894891,80.3773006 134.981686,80.4281238 135.078947,80.4573475 C135.176209,80.4865713 135.275315,80.501183 135.37627,80.501183 C135.491998,80.501183 135.593567,80.4846654 135.680979,80.4516299 C135.768391,80.4185943 135.841643,80.3728534 135.900739,80.3144059 C135.959834,80.2559583 136.004155,80.1867118 136.033703,80.106664 C136.06325,80.0266163 136.078024,79.9395816 136.078024,79.8455573 Z" id="Combined-Shape" fill="#2684FF" mask="url(#mask-2)"></path>
            </g>
        </g>
    </g>
</svg>