<?xml version="1.0" encoding="UTF-8" standalone="no"?>
<svg width="150px" height="150px" viewBox="0 0 150 150" version="1.1" xmlns="http://www.w3.org/2000/svg" xmlns:xlink="http://www.w3.org/1999/xlink">
    <!-- Generator: Sketch 40.3 (33839) - http://www.bohemiancoding.com/sketch -->
    <title>feature02-eventos</title>
    <desc>Created with Sketch.</desc>
    <defs>
        <rect id="path-1" x="0" y="0" width="150" height="150"></rect>
    </defs>
    <g id="Symbols" stroke="none" stroke-width="1" fill="none" fill-rule="evenodd">
        <g id="feature02-eventos">
            <g>
                <mask id="mask-2" fill="white">
                    <use xlink:href="#path-1"></use>
                </mask>
                <g id="Mask"></g>
                <path d="M53.2259279,82.2294108 C53.2259279,82.2294108 49.2747404,83.2675074 48.5619581,81.8402983 C48.5619581,81.8402983 45.4519508,82.2940313 47.0073015,80.8022017 C48.5619581,79.3103721 48.6271981,79.2450568 49.2095003,79.1158159 C49.2095003,79.1158159 46.2285851,78.5967676 46.4229172,76.7151307 C46.4229172,76.7151307 45.1271387,75.1586806 47.0718475,74.8334937 C47.0718475,74.8334937 50.5705189,73.8614073 50.959183,73.4715999 C50.959183,73.4715999 52.1911096,70.0342078 53.292556,69.6450953 C53.292556,69.6450953 52.9684379,67.3090306 53.0322898,66.7260566 C53.0968359,66.1423879 52.2549615,64.585243 53.6159801,65.1042913 C54.9769987,65.6226447 56.7905334,67.894089 57.2430495,68.6063039 L57.9565258,68.801555 C57.9565258,68.801555 60.6778689,63.4825259 61.3913452,66.4015646 C61.3913452,66.4015646 62.8162158,71.0069891 62.8162158,71.7852141 C62.8162158,72.5634391 62.9453078,72.434893 63.6580901,72.8233107 C64.3708724,73.2124232 66.5099133,77.7532272 66.8978834,80.4130892 C66.8978834,80.4130892 69.8135585,82.6178285 70.915005,83.7212404 C72.0171455,84.8239574 73.44271,85.0178188 75.7094549,85.6021825 C77.9782819,86.1858512 80.7634769,85.537562 81.6053512,85.3423109 C82.4486136,85.1477546 81.8649234,84.3695296 81.6705913,84.3042143 C81.4762592,84.2395938 81.4762592,83.6552302 81.4762592,83.6552302 C81.4762592,83.6552302 81.3471672,83.3321279 81.1528351,83.1375716 C80.958503,82.9430154 81.3471672,82.8777 81.2819271,82.6824489 C81.2173811,82.4878927 80.7634769,82.0987802 80.7634769,82.0987802 C80.7634769,82.0987802 81.6053512,81.9695392 81.1528351,81.7096677 C80.6989309,81.4504909 80.6989309,81.3205552 80.893263,81.1906194 C81.0875951,81.0606836 81.0875951,80.8015069 80.958503,80.5423301 C80.828717,80.2831534 80.893263,81.0606836 80.828717,80.2831534 C80.7634769,79.5042335 80.3095727,79.568854 80.7634769,79.5042335 C81.2173811,79.4389182 81.4110192,79.5042335 81.3471672,79.0498057 C81.2819271,78.5960727 81.7351373,78.7260085 81.7351373,78.4022113 L81.7351373,77.6879119 C81.7351373,77.6879119 82.2535875,78.2069602 82.3188276,77.4933557 C82.3833736,76.7797511 82.6429457,77.0389279 82.9025178,76.9743074 C83.1607019,76.9096869 83.6146061,76.3253233 83.8089382,76.1314619 C84.0025762,75.9362108 84.3926284,75.6770341 84.7160525,75.8715903 C85.0401707,76.0661466 85.4940749,75.4824778 85.4940749,75.4824778 C85.4940749,75.4824778 86.2061631,75.3532369 86.4004952,75.4824778 C86.5948273,75.6124136 87.5671817,75.0287448 87.5671817,75.0287448 L88.0849378,75.3532369 L89.4459564,75.0287448 L90.6126429,75.1579858 C90.6126429,75.1579858 91.6488493,75.2233011 91.4545172,75.4824778 C91.2601851,75.7423494 91.3247311,76.1960824 91.7140893,76.0015261 C92.1027535,75.8069699 92.2970856,76.1960824 92.1027535,76.3253233 C91.9084214,76.4552591 92.8800818,76.8450664 92.7496017,77.0396227 C92.6205097,77.2334841 93.0744139,78.5960727 93.0744139,78.5960727 L93.2687459,79.244362 C93.527624,79.3096773 93.7219561,79.6987898 93.7219561,79.6987898 C93.7219561,79.6987898 94.4992844,81.5158063 94.1758603,81.7096677 C93.8517422,81.9042239 93.6574101,82.228716 94.1758603,82.2933364 C94.6943105,82.3579569 94.2397123,82.6824489 94.2397123,82.6824489 C94.2397123,82.6824489 93.7219561,82.8777 94.3694983,83.0076358 C95.0177346,83.1375716 94.6290705,83.5266841 94.6290705,83.5266841 L94.7588565,83.9804171 C95.0829747,84.0450376 95.1468266,84.3042143 95.1468266,84.3042143 L95.2773067,84.6294012 L95.0177346,85.2123751 C95.0177346,85.2123751 98.6461921,88.9103336 99.6185465,93.8395553 C100.589513,98.7694719 101.108657,100.13206 100.589513,103.245655 C100.071757,106.35925 100.330635,107.9157 101.108657,109.732022 C101.885291,111.547649 103.051284,114.531308 102.922192,118.03471 C102.7931,121.538112 103.247004,122.835386 102.7931,123.289119 C102.339196,123.743547 96.3787532,124.521772 98.322768,121.86191 C98.322768,121.86191 99.2298823,121.797289 99.6830925,120.693877 C100.136303,119.591855 99.8128786,118.683694 99.4887604,117.515662 C99.1646423,116.348324 98.322768,114.596623 97.8695578,113.559221 C97.4156536,112.52043 91.5836092,105.255838 91.4538232,103.504832 C91.4538232,103.504832 91.065159,107.00754 91.129705,108.110257 C91.194251,109.212974 91.7127013,109.796642 91.9084214,111.02999 C92.1027535,112.261253 91.9084214,115.180292 91.2594911,116.672816 C90.6112548,118.165341 89.8346206,119.202048 89.7693805,119.786411 C89.7041404,120.37008 89.5098084,120.629257 87.9551518,120.564636 C87.9551518,120.564636 83.2897939,120.564636 85.4940749,119.072807 C85.4940749,119.072807 86.5295872,118.878251 87.0487315,118.424518 C87.5671817,117.97009 87.5671817,117.97009 87.6962737,117.19117 C87.8253657,116.412945 88.0849378,114.272826 87.8906058,113.494601 C87.6962737,112.714986 87.1785175,112.002771 87.2430635,111.547649 C87.3076095,111.094611 87.0487315,110.185755 86.5948273,109.537466 C86.1416171,108.888482 83.7436981,105.385774 84.0678162,104.023186 C84.0678162,104.023186 82.0592554,103.958565 80.958503,104.477613 C79.8556685,104.996662 72.1455434,106.618427 70.1376767,105.970138 C68.1291159,105.320459 70.2029167,105.710266 70.2029167,105.710266 C70.2029167,105.710266 69.7490125,119.721791 68.7766581,121.797289 C67.8056918,123.872788 68.1936619,124.457151 66.4446732,124.846264 C66.4446732,124.846264 60.872895,125.75373 63.6580901,123.159183 C63.6580901,123.159183 64.5006584,122.64083 64.7588425,121.927225 C65.0198027,121.21362 64.9545626,116.868068 65.0198027,116.089148 C65.0843487,115.310228 64.8240825,112.521125 64.8240825,112.521125 C64.8240825,112.521125 63.463758,122.121781 62.0381934,123.029942 C62.0381934,123.029942 55.6890869,124.651707 56.5309612,122.445578 C57.3735296,120.240839 57.9565258,121.408177 59.1232123,121.278241 C60.2898988,121.149 59.9012346,119.591855 60.0955667,118.878945 C60.2898988,118.165341 59.7714486,112.326569 59.7069026,111.289167 C59.6416625,110.25107 58.8643342,106.812983 58.7997882,105.840202 C58.7345482,104.867421 57.9565258,102.856543 57.5040097,101.753826 C57.0494114,100.651109 54.1989763,95.2014491 54.2635223,92.5415872 C54.3280684,89.8824201 53.6812202,83.2675074 53.2259279,82.2294108" id="dog" fill="#2684FF" mask="url(#mask-2)"></path>
                <path d="M18,54 L25,54 L25,55 L18,55 L18,54 Z M12,59 L31,59 L31,60 L12,60 L12,59 Z M14,54 L14,55 L13.008358,55 C12.4468743,55 12,55.4453326 12,55.9974219 L12,71.0025781 C12,71.5556938 12.4441846,72 12.9945615,72 L30.0054385,72 C30.5490024,72 31,71.5498131 31,71.0025781 L31,55.9974219 C31,55.4454578 30.5523731,55 29.9951776,55 L29,55 L29,54 L29.9951776,54 C31.1024104,54 32,54.8909254 32,55.9974219 L32,71.0025781 C32,72.1057238 31.0976562,73 30.0054385,73 L12.9945615,73 C11.8929956,73 11,72.1090746 11,71.0025781 L11,55.9974219 C11,54.8942762 11.8933512,54 13.008358,54 L14,54 Z M14,52.9998075 C14,52.4476291 14.4433532,52 15.0093689,52 L16.9906311,52 C17.5480902,52 18,52.4437166 18,52.9998075 L18,56.0001925 C18,56.5523709 17.5566468,57 16.9906311,57 L15.0093689,57 C14.4519098,57 14,56.5562834 14,56.0001925 L14,52.9998075 Z M15,52.9998075 L15,56.0001925 C15,55.9998925 15.0001088,56 15.0093689,56 L16.9906311,56 C17.0022212,56 17,56.0022131 17,56.0001925 L17,52.9998075 C17,53.0001075 16.9998912,53 16.9906311,53 L15.0093689,53 C14.9977788,53 15,52.9977869 15,52.9998075 Z M25,52.9998075 C25,52.4476291 25.4433532,52 26.0093689,52 L27.9906311,52 C28.5480902,52 29,52.4437166 29,52.9998075 L29,56.0001925 C29,56.5523709 28.5566468,57 27.9906311,57 L26.0093689,57 C25.4519098,57 25,56.5562834 25,56.0001925 L25,52.9998075 Z M26,52.9998075 L26,56.0001925 C26,55.9998925 26.0001088,56 26.0093689,56 L27.9906311,56 C28.0022212,56 28,56.0022131 28,56.0001925 L28,52.9998075 C28,53.0001075 27.9998912,53 27.9906311,53 L26.0093689,53 C25.9977788,53 26,52.9977869 26,52.9998075 Z M24.1651837,70.5987491 L23.3261369,67.0300493 L26.0927221,64.6663959 L22.44682,64.3794761 L21.0463611,61 L19.681139,64.3760908 L16,64.6663959 L18.7864494,67.0186017 L17.9275384,70.5987491 L21.053691,68.6837289 L24.1651837,70.5987491 Z M19.4667221,68.4695783 L19.8246528,66.977637 L19.8961072,66.6797981 L19.6632341,66.4808412 L18.5812793,65.4659337 L20.0301229,65.3516738 L20.3354651,65.3275936 L20.4527226,65.0446371 L21.0649312,63.6569279 L21.6399995,65.0446371 L21.757257,65.3275936 L22.0625992,65.3516738 L23.6261432,65.4584696 L22.429488,66.4808412 L22.1966149,66.6797981 L22.2680693,66.977637 L22.6218084,68.4805948 L21.3075421,67.6755009 L21.0463611,67.5155065 L20.78518,67.6755009 L19.4667221,68.4695783 Z" id="Combined-Shape" fill="#2684FF" mask="url(#mask-2)"></path>
                <path d="M114,50.7142857 L120,50.7142857 L120,51.5714286 L114,51.5714286 L114,50.7142857 Z M108.857143,55 L125.142857,55 L125.142857,55.8571429 L108.857143,55.8571429 L108.857143,55 Z M110.571429,50.7142857 L110.571429,51.5714286 L109.72145,51.5714286 C109.240178,51.5714286 108.857143,51.9531422 108.857143,52.4263616 L108.857143,65.2879241 C108.857143,65.7620233 109.237873,66.1428571 109.709624,66.1428571 L124.290376,66.1428571 C124.756288,66.1428571 125.142857,65.7569826 125.142857,65.2879241 L125.142857,52.4263616 C125.142857,51.9532495 124.759177,51.5714286 124.281581,51.5714286 L123.428571,51.5714286 L123.428571,50.7142857 L124.281581,50.7142857 C125.230638,50.7142857 126,51.4779361 126,52.4263616 L126,65.2879241 C126,66.2334775 125.226562,67 124.290376,67 L109.709624,67 C108.765425,67 108,66.2363497 108,65.2879241 L108,52.4263616 C108,51.4808082 108.76573,50.7142857 109.72145,50.7142857 L110.571429,50.7142857 Z M110.571429,49.8569779 C110.571429,49.3836821 110.951446,49 111.436602,49 L113.134827,49 C113.612649,49 114,49.3803286 114,49.8569779 L114,52.4287364 C114,52.9020322 113.619983,53.2857143 113.134827,53.2857143 L111.436602,53.2857143 C110.95878,53.2857143 110.571429,52.9053857 110.571429,52.4287364 L110.571429,49.8569779 Z M111.428571,49.8569779 L111.428571,52.4287364 C111.428571,52.4284793 111.428665,52.4285714 111.436602,52.4285714 L113.134827,52.4285714 C113.144761,52.4285714 113.142857,52.4304683 113.142857,52.4287364 L113.142857,49.8569779 C113.142857,49.857235 113.142764,49.8571429 113.134827,49.8571429 L111.436602,49.8571429 C111.426668,49.8571429 111.428571,49.8552459 111.428571,49.8569779 Z M120,49.8569779 C120,49.3836821 120.380017,49 120.865173,49 L122.563398,49 C123.04122,49 123.428571,49.3803286 123.428571,49.8569779 L123.428571,52.4287364 C123.428571,52.9020322 123.048554,53.2857143 122.563398,53.2857143 L120.865173,53.2857143 C120.387351,53.2857143 120,52.9053857 120,52.4287364 L120,49.8569779 Z M120.857143,49.8569779 L120.857143,52.4287364 C120.857143,52.4284793 120.857236,52.4285714 120.865173,52.4285714 L122.563398,52.4285714 C122.573332,52.4285714 122.571429,52.4304683 122.571429,52.4287364 L122.571429,49.8569779 C122.571429,49.857235 122.571335,49.8571429 122.563398,49.8571429 L120.865173,49.8571429 C120.855239,49.8571429 120.857143,49.8552459 120.857143,49.8569779 Z M119.284443,64.941785 L118.56526,61.8828994 L120.936619,59.8569108 L117.81156,59.6109795 L116.611167,56.7142857 L115.440976,59.6080778 L112.285714,59.8569108 L114.674099,61.8730872 L113.93789,64.941785 L116.617449,63.3003391 L119.284443,64.941785 Z M115.25719,63.1167814 L115.563988,61.8379746 L115.625235,61.5826841 L115.425629,61.4121496 L114.498239,60.5422289 L115.740105,60.4442918 L116.001827,60.4236517 L116.102334,60.1811175 L116.627084,58.9916525 L117.12,60.1811175 L117.220506,60.4236517 L117.482228,60.4442918 L118.822408,60.5358311 L117.796704,61.4121496 L117.597098,61.5826841 L117.658345,61.8379746 L117.96155,63.1262241 L116.835036,62.4361436 L116.611167,62.2990056 L116.387297,62.4361436 L115.25719,63.1167814 Z" id="Combined-Shape" fill="#2684FF" mask="url(#mask-2)"></path>
                <path d="M17,98.4285714 L22,98.4285714 L22,99.1428571 L17,99.1428571 L17,98.4285714 Z M12.7142857,102 L26.2857143,102 L26.2857143,102.714286 L12.7142857,102.714286 L12.7142857,102 Z M14.1428571,98.4285714 L14.1428571,99.1428571 L13.4345414,99.1428571 C13.0334817,99.1428571 12.7142857,99.4609518 12.7142857,99.8553014 L12.7142857,110.57327 C12.7142857,110.968353 13.0315604,111.285714 13.4246868,111.285714 L25.5753132,111.285714 C25.9635732,111.285714 26.2857143,110.964152 26.2857143,110.57327 L26.2857143,99.8553014 C26.2857143,99.4610413 25.9659808,99.1428571 25.567984,99.1428571 L24.8571429,99.1428571 L24.8571429,98.4285714 L25.567984,98.4285714 C26.3588646,98.4285714 27,99.0649467 27,99.8553014 L27,110.57327 C27,111.361231 26.3554688,112 25.5753132,112 L13.4246868,112 C12.637854,112 12,111.363625 12,110.57327 L12,99.8553014 C12,99.0673402 12.638108,98.4285714 13.4345414,98.4285714 L14.1428571,98.4285714 Z M14.1428571,97.7141482 C14.1428571,97.319735 14.459538,97 14.8638349,97 L16.2790222,97 C16.6772073,97 17,97.3169405 17,97.7141482 L17,99.8572804 C17,100.251694 16.6833192,100.571429 16.2790222,100.571429 L14.8638349,100.571429 C14.4656499,100.571429 14.1428571,100.254488 14.1428571,99.8572804 L14.1428571,97.7141482 Z M14.8571429,97.7141482 L14.8571429,99.8572804 C14.8571429,99.8570661 14.8572206,99.8571429 14.8638349,99.8571429 L16.2790222,99.8571429 C16.2873008,99.8571429 16.2857143,99.8587236 16.2857143,99.8572804 L16.2857143,97.7141482 C16.2857143,97.7143625 16.2856365,97.7142857 16.2790222,97.7142857 L14.8638349,97.7142857 C14.8555563,97.7142857 14.8571429,97.7127049 14.8571429,97.7141482 Z M22,97.7141482 C22,97.319735 22.3166808,97 22.7209778,97 L24.1361651,97 C24.5343501,97 24.8571429,97.3169405 24.8571429,97.7141482 L24.8571429,99.8572804 C24.8571429,100.251694 24.540462,100.571429 24.1361651,100.571429 L22.7209778,100.571429 C22.3227927,100.571429 22,100.254488 22,99.8572804 L22,97.7141482 Z M22.7142857,97.7141482 L22.7142857,99.8572804 C22.7142857,99.8570661 22.7143635,99.8571429 22.7209778,99.8571429 L24.1361651,99.8571429 C24.1444437,99.8571429 24.1428571,99.8587236 24.1428571,99.8572804 L24.1428571,97.7141482 C24.1428571,97.7143625 24.1427794,97.7142857 24.1361651,97.7142857 L22.7209778,97.7142857 C22.7126992,97.7142857 22.7142857,97.7127049 22.7142857,97.7141482 Z M21.4037026,110.284821 L20.8043835,107.735749 L22.7805158,106.047426 L20.1763,105.842483 L19.1759722,103.428571 L18.2008135,105.840065 L15.5714286,106.047426 L17.5617495,107.727573 L16.9482417,110.284821 L19.1812079,108.916949 L21.4037026,110.284821 Z M18.0476587,108.763984 L18.3033235,107.698312 L18.3543623,107.48557 L18.1880244,107.343458 L17.4151995,106.618524 L18.4500878,106.53691 L18.6681893,106.51971 L18.7519447,106.317598 L19.1892365,105.326377 L19.5999996,106.317598 L19.683755,106.51971 L19.9018566,106.53691 L21.0186737,106.613193 L20.16392,107.343458 L19.9975821,107.48557 L20.0486209,107.698312 L20.3012917,108.771853 L19.36253,108.196786 L19.1759722,108.082505 L18.9894143,108.196786 L18.0476587,108.763984 Z" id="Combined-Shape" fill="#2684FF" mask="url(#mask-2)"></path>
                <path d="M132.4,89 L132.4,91.1818182 L123.6,91.1818182 L123.6,89 L120.3,89 L120.3,91.1818182 L119.2,91.1818182 C118.1,91.4 117,92.48 117,93.3636364 L117,110.818182 C117,111.92 118.1,113 119.2,113 L136.8,113 C137.9,113 139,111.92 139,110.818182 L139,93.3636364 C139,92.48 137.9,91.4 136.8,91.1818182 L135.7,91.1818182 L135.7,89 L132.4,89 Z M136.8,110.818182 L119.2,110.818182 L119.2,97.7272727 L136.8,97.7272727 L136.8,110.818182 Z M128,107.545455 L130.29196,109.0608 C130.848685,109.428883 131.169496,109.209571 131.00522,108.557898 L130.2,105.363636 L132.49196,103.848291 C133.048685,103.480208 132.977984,103.052393 132.320881,102.889475 L129.1,102.090909 L128.384727,99.962823 C128.172248,99.3306551 127.694099,99.2732405 127.327973,99.8178909 L125.8,102.090909 L122.579119,102.889475 C121.92791,103.050931 121.858851,103.485191 122.40804,103.848291 L124.7,105.363636 L123.89478,108.557898 C123.731977,109.203726 124.087688,109.485444 124.687641,109.187947 L128,107.545455 Z" id="event" fill="#2684FF" mask="url(#mask-2)"></path>
                <path d="M79.9,29 L79.9,30.7272727 L73.1,30.7272727 L73.1,29 L70.55,29 L70.55,30.7272727 L69.7,30.7272727 C68.85,30.9 68,31.755 68,32.4545455 L68,46.2727273 C68,47.145 68.85,48 69.7,48 L83.3,48 C84.15,48 85,47.145 85,46.2727273 L85,32.4545455 C85,31.755 84.15,30.9 83.3,30.7272727 L82.45,30.7272727 L82.45,29 L79.9,29 Z M83.3,46.2727273 L69.7,46.2727273 L69.7,35.9090909 L83.3,35.9090909 L83.3,46.2727273 Z M76.5,43.6818182 L78.27106,44.8814667 C78.7012567,45.1728655 78.9491559,44.9992434 78.8266725,44.5014498 L78.2,41.9545455 L79.97106,40.7548969 C80.4012567,40.4634981 80.3466238,40.1248109 79.8388624,39.995834 L77.35,39.3636364 L76.7925218,37.6643712 C76.6309665,37.1719299 76.2707304,37.1221488 75.9899439,37.5500854 L74.8,39.3636364 L72.3111376,39.995834 C71.8079302,40.1236541 71.7545666,40.4674426 72.17894,40.7548969 L73.95,41.9545455 L73.3233275,44.5014498 C73.1999871,45.0027261 73.4768502,45.2176429 73.9404496,44.9821245 L76.5,43.6818182 Z" id="event" fill="#2684FF" mask="url(#mask-2)"></path>
            </g>
        </g>
    </g>
</svg>