<?xml version="1.0" encoding="UTF-8" standalone="no"?>
<svg width="150px" height="150px" viewBox="0 0 150 150" version="1.1" xmlns="http://www.w3.org/2000/svg" xmlns:xlink="http://www.w3.org/1999/xlink">
    <!-- Generator: Sketch 40.3 (33839) - http://www.bohemiancoding.com/sketch -->
    <title>feature01-cadastros</title>
    <desc>Created with Sketch.</desc>
    <defs>
        <rect id="path-1" x="0" y="0" width="150" height="150"></rect>
    </defs>
    <g id="Symbols" stroke="none" stroke-width="1" fill="none" fill-rule="evenodd">
        <g id="feature01-cadastros">
            <g>
                <mask id="mask-2" fill="white">
                    <use xlink:href="#path-1"></use>
                </mask>
                <g id="Mask"></g>
                <g id="PetStar-icon" mask="url(#mask-2)" fill="#2684FF">
                    <g transform="translate(50.000000, 62.000000)" id="Combined-Shape">
                        <path d="M0,6.12665254 C0,2.74299577 2.74754107,0 6.12665254,0 L56.8733475,0 C60.2570042,0 63,2.74754107 63,6.12665254 L63,56.8733475 C63,60.2570042 60.2524589,63 56.8733475,63 L6.12665254,63 C2.74299577,63 0,60.2524589 0,56.8733475 L0,6.12665254 Z M41.8359375,13.4121094 C37.8767993,9.57201009 33.022752,7.62890625 27.3164063,7.62890625 C24.3837385,7.62890625 21.561276,8.26347182 18.8261719,9.47460938 C16.0743797,10.8009975 13.8064871,12.5102365 12.0585938,14.6425781 C8.93038922,18.3616455 7.3828125,23.1858906 7.3828125,29.1621094 L7.3828125,63 L22.3945313,63 L22.3945313,34.5761719 L18.2109375,37.6523438 L19.9335938,30.7617188 L14.8886719,26.3320313 L21.2871094,25.9628906 L23.5019531,19.3183594 L25.8398438,25.9628906 L32.2382813,26.2089844 L27.1933594,30.7617188 L28.9160156,37.6523438 L24.609375,34.453125 C24.6332765,34.4519154 24.6332765,45.1643986 24.609375,47.6191406 C26.0643531,47.7741093 27.1712876,47.8367188 27.9316406,47.8652344 C33.3130834,47.8367188 37.9425833,45.8538395 41.8359375,41.8359375 C45.7771215,37.8969103 47.7421875,33.1651063 47.7421875,27.6855469 C47.7421875,22.0622345 45.7638913,17.3175402 41.8359375,13.4121094 Z"></path>
                    </g>
                </g>
                <path d="M28.662184,42.3174506 C28.662184,42.3174506 27.2064833,42.698086 26.9438793,42.174776 C26.9438793,42.174776 25.7980872,42.3411448 26.3711111,41.7941406 C26.9438793,41.2471364 26.9679151,41.2231875 27.1824475,41.1757992 C27.1824475,41.1757992 26.0842156,40.9854814 26.1558116,40.2955479 C26.1558116,40.2955479 25.6784195,39.7248496 26.3948912,39.6056144 C26.3948912,39.6056144 27.6838754,39.2491827 27.8270674,39.1062533 C27.8270674,39.1062533 28.2809351,37.8458762 28.6867312,37.7032016 C28.6867312,37.7032016 28.5673192,36.8466445 28.5908436,36.6328874 C28.6146237,36.4188756 28.3044595,35.8479224 28.8058874,36.0382401 C29.3073153,36.2283031 29.9754597,37.061166 30.1421761,37.3223114 L30.4050358,37.3939035 C30.4050358,37.3939035 31.4076359,35.4435928 31.6704956,36.513907 C31.6704956,36.513907 32.1954479,38.2025627 32.1954479,38.4879118 C32.1954479,38.773261 32.2430081,38.7261274 32.5056121,38.8685473 C32.7682161,39.0112218 33.5562838,40.6761833 33.6992202,41.651466 C33.6992202,41.651466 34.7734163,42.4598704 35.1792124,42.8644548 C35.5852641,43.2687844 36.1104721,43.3398669 36.9455886,43.5541336 C37.7814723,43.7681454 38.8075968,43.5304394 39.117761,43.4588473 C39.4284366,43.38751 39.2133928,43.1021609 39.1417968,43.0782119 C39.0702008,43.0545177 39.0702008,42.8402511 39.0702008,42.8402511 C39.0702008,42.8402511 39.0226405,42.7217802 38.9510445,42.6504429 C38.8794485,42.5791056 39.0226405,42.5551567 38.9986047,42.4835646 C38.9748246,42.4122273 38.8075968,42.2695527 38.8075968,42.2695527 C38.8075968,42.2695527 39.117761,42.2221644 38.9510445,42.1268781 C38.7838167,42.0318467 38.7838167,41.9842036 38.8554127,41.9365604 C38.9270087,41.8889173 38.9270087,41.7938858 38.8794485,41.6988544 C38.8316326,41.6038229 38.8554127,41.8889173 38.8316326,41.6038229 C38.8075968,41.318219 38.6403689,41.3419131 38.8075968,41.318219 C38.9748246,41.29427 39.046165,41.318219 39.0226405,41.1515954 C38.9986047,40.9852267 39.1655769,41.0328698 39.1655769,40.9141442 L39.1655769,40.6522344 C39.1655769,40.6522344 39.3565849,40.8425521 39.3806207,40.5808971 C39.4044008,40.3192421 39.5000326,40.4142735 39.5956645,40.3905794 C39.6907849,40.3668852 39.8580128,40.1526185 39.9296088,40.081536 C40.0009491,40.009944 40.1446526,39.9149125 40.2638088,39.9862498 C40.3832208,40.0575871 40.5504486,39.8435752 40.5504486,39.8435752 C40.5504486,39.8435752 40.8127969,39.7961869 40.884393,39.8435752 C40.955989,39.8912183 41.3142248,39.6772064 41.3142248,39.6772064 L41.5049771,39.7961869 L42.006405,39.6772064 L42.4362369,39.7245948 C42.4362369,39.7245948 42.8179971,39.7485437 42.7464011,39.8435752 C42.674805,39.9388614 42.6985852,40.1052302 42.8420329,40.0338929 C42.985225,39.9625556 43.056821,40.1052302 42.985225,40.1526185 C42.9136289,40.2002617 43.2716091,40.343191 43.2235375,40.4145283 C43.1759772,40.4856108 43.3432051,40.9852267 43.3432051,40.9852267 L43.4148011,41.2229327 C43.5101773,41.2468817 43.5817733,41.3895563 43.5817733,41.3895563 C43.5817733,41.3895563 43.8681574,42.0557956 43.7490012,42.1268781 C43.6295892,42.1982154 43.5579932,42.3171959 43.7490012,42.34089 C43.9400091,42.3645842 43.7725256,42.4835646 43.7725256,42.4835646 C43.7725256,42.4835646 43.5817733,42.5551567 43.8203415,42.6027998 C44.0591654,42.6504429 43.9159733,42.7931175 43.9159733,42.7931175 L43.9637892,42.9594863 C44.0832012,42.9831804 44.1067256,43.0782119 44.1067256,43.0782119 L44.1547972,43.1974471 L44.0591654,43.4112042 C44.0591654,43.4112042 45.3959655,44.7671223 45.7542013,46.5745036 C46.1119258,48.3821397 46.3031894,48.8817555 46.1119258,50.023407 C45.9211735,51.1650585 46.0165496,51.7357568 46.3031894,52.4017414 C46.5893179,53.0674712 47.018894,54.1614796 46.9713338,55.4460604 C46.9237736,56.7306412 47.0910015,57.2063081 46.9237736,57.3726769 C46.7565457,57.5393004 44.5605933,57.8246496 45.2768093,56.8493669 C45.2768093,56.8493669 45.6110093,56.8256727 45.7779814,56.4210883 C45.9449536,56.0170135 45.8257974,55.6840212 45.7063854,55.2557427 C45.5869735,54.8277189 45.2768093,54.1854285 45.1098371,53.8050479 C44.9426092,53.4241577 42.7939613,50.7604741 42.7461454,50.1184385 C42.7461454,50.1184385 42.6029533,51.4027645 42.6267334,51.8070941 C42.6505135,52.2114237 42.8415215,52.4254356 42.9136289,52.8776631 C42.985225,53.3291262 42.9136289,54.3994404 42.6745493,54.9466993 C42.4357255,55.4939583 42.149597,55.8740842 42.1255612,56.0883508 C42.1015254,56.3023627 42.0299294,56.3973942 41.4571612,56.3737 C41.4571612,56.3737 39.7383451,56.3737 40.5504486,55.8266958 C40.5504486,55.8266958 40.9319532,55.7553585 41.1232169,55.5889898 C41.3142248,55.4223662 41.3142248,55.4223662 41.361785,55.1367623 C41.4093453,54.8514131 41.5049771,54.0667029 41.4333811,53.7813537 C41.361785,53.495495 41.1710328,53.2343495 41.1948129,53.0674712 C41.218593,52.9013572 41.1232169,52.5681102 40.955989,52.3304041 C40.7890168,52.0924433 39.905573,50.8081172 40.0249849,50.3085014 C40.0249849,50.3085014 39.2849888,50.2848072 38.8794485,50.4751249 C38.473141,50.6654426 35.6325686,51.2600899 34.8928283,51.0223839 C34.1528322,50.7841683 34.9168641,50.9270976 34.9168641,50.9270976 C34.9168641,50.9270976 34.7496362,56.0646566 34.3914004,56.8256727 C34.0336759,57.5866888 34.1766123,57.8009554 33.532248,57.94363 C33.532248,57.94363 31.4794876,58.2763675 32.5056121,57.3250338 C32.5056121,57.3250338 32.8160321,57.1349708 32.9111525,56.8733158 C33.0072957,56.6116608 32.9832599,55.0182914 33.0072957,54.7326875 C33.0310758,54.4470835 32.9351883,53.4244125 32.9351883,53.4244125 C32.9351883,53.4244125 32.4340161,56.9446531 31.9088081,57.2776454 C31.9088081,57.2776454 29.5696636,57.8722927 29.8798278,57.0633788 C30.1902477,56.2549744 30.4050358,56.6829981 30.8348677,56.635355 C31.2646996,56.5879667 31.1215075,56.0170135 31.1931035,55.7556133 C31.2646996,55.4939583 31.0736916,53.3530752 31.0499115,52.9726945 C31.0258757,52.5920591 30.7394916,51.3314272 30.7157114,50.9747408 C30.6916756,50.6180543 30.4050358,49.8807324 30.2383194,49.4764028 C30.0708358,49.0720732 29.0206755,47.0738647 29.0444556,46.098582 C29.0682357,45.123554 28.8299232,42.698086 28.662184,42.3174506" id="dog" fill="#2684FF" mask="url(#mask-2)"></path>
                <path d="M16.80233,121.233193 C16.80233,121.233193 16.5478475,121.476059 16.6015058,121.605082 C16.6551641,121.733881 16.7025097,121.71089 16.7826027,121.764463 C16.8632875,121.817367 16.7755008,122.113137 16.7755008,122.113137 L16.7960173,122.325645 L15.7506661,123 C15.7506661,123 15.6234248,122.3406 15.8378609,122.113137 C15.8378609,122.113137 15.7573734,121.976748 15.8581801,121.832323 C15.9580003,121.688567 16.1059553,121.29391 16.1461991,121.142565 C16.185851,120.990997 16.185851,120.611965 16.2600257,120.429592 C16.333806,120.247889 16.5478475,119.565497 16.6015058,119.133115 C16.6551641,118.701179 16.6551641,118.306745 16.7826027,117.958518 C16.909844,117.608951 17.0639144,117.306038 17.4259109,116.91205 C17.7879074,116.517393 18.0558045,116.001749 18.1763385,115.706202 C18.2970697,115.410655 18.477772,114.970237 18.4915812,114.871796 C18.5046012,114.773801 18.5119003,114.735853 18.3976791,114.68228 C18.2838524,114.629376 17.8346611,114.181815 17.7744928,113.582909 C17.7139299,112.984226 17.646857,112.862793 17.7139299,112.521932 C17.7808055,112.180624 17.8147365,111.831727 17.6336396,111.444659 C17.4525428,111.058484 17.0372825,110.07251 16.9169458,109.852636 C16.7960173,109.632538 16.6417496,109.238551 16.5076037,109.200603 C16.374247,109.162878 16.2671276,109.07158 16.0520997,109.299267 C15.8378609,109.526731 15.5831811,109.579858 15.4693544,109.632538 C15.3555277,109.686112 15.1410917,109.966033 14.8992346,110.118048 C14.6581666,110.269839 14.464247,110.375646 14.3902695,110.504669 C14.3166866,110.633692 14.1890508,111.308494 13.727234,111.043528 L13.7069149,110.929462 L13.6264273,110.989955 C13.6264273,110.989955 13.2111671,111.027903 13.0770212,110.406228 C12.9426781,109.78433 13.0099483,109.882994 13.0839258,109.716024 C13.1573115,109.549276 13.5729663,108.571115 13.727234,108.343874 C13.8809099,108.116187 14.0487895,107.630901 14.0487895,107.525094 C14.0487895,107.418617 14.0284703,107.168384 14.2093699,106.895829 C14.3902695,106.622605 14.5040962,106.387775 14.5445372,106.288887 C14.5849783,106.190446 14.5175108,106.031288 14.5307281,105.993341 C14.5445372,105.955393 13.9819138,105.303359 14.0687141,105.106254 C14.0687141,105.106254 14.3166866,105.242643 14.4506351,105.371666 C14.5849783,105.500465 14.6719758,105.485286 14.6719758,105.485286 C14.6719758,105.485286 14.4443224,105.060717 14.4973889,105 C14.4973889,105 14.6652685,105.060717 14.8392635,105.235277 C15.0136531,105.409613 15.3352086,105.47033 15.4494298,105.538413 C15.5632565,105.606496 15.7439588,105.447115 15.8984238,105.492875 C16.0520997,105.538413 15.5965957,105.235277 15.6167176,105.106254 C15.6167176,105.106254 16.1195672,105.29577 16.2803449,105.409613 C16.4411226,105.523234 16.3874643,105.424793 16.4411226,105.379255 C16.4943864,105.333718 16.6417496,105.12121 16.7490662,105 C16.7490662,105 16.5478475,105.227687 16.6488514,105.371666 C16.6488514,105.371666 16.7693854,105.311172 16.8966266,105.235277 C16.8966266,105.235277 16.7291416,105.379255 16.8699947,105.492875 C17.0106506,105.606496 17.2185766,105.705383 17.3324033,105.735295 C17.44623,105.765877 17.4931811,105.576361 17.8009274,105.599129 C17.8009274,105.599129 17.5334248,105.682615 17.6003005,105.796012 C17.6671761,105.909855 18.0021461,105.940437 18.1159728,105.902266 C18.2303913,105.864318 18.4039918,105.834183 18.3440208,105.902266 C18.2838524,105.970795 18.2767506,106.069236 18.3169943,106.038878 C18.3574353,106.00852 18.350728,106.054057 18.3373135,106.099371 C18.3240962,106.145132 18.3641426,106.129953 18.3840672,106.129953 C18.4039918,106.129953 18.4643575,106.114774 18.3911691,106.190446 C18.3169943,106.266119 18.2369014,106.372596 18.3169943,106.341791 C18.3976791,106.311656 18.5651641,106.243796 18.4915812,106.30429 C18.417801,106.365006 18.4716566,106.402954 18.544845,106.372596 C18.619217,106.341791 18.6590662,106.349604 18.6054079,106.410767 C18.5519468,106.471037 18.477772,106.546933 18.5385322,106.531753 C18.598306,106.516128 18.6926027,106.471037 18.638747,106.546933 C18.5850887,106.622605 18.5651641,106.637561 18.6251352,106.629971 C18.6856981,106.622605 18.7326491,106.615015 18.6993099,106.668142 C18.6657735,106.721269 18.6523589,106.781986 18.7192345,106.77462 C18.7861102,106.766807 18.8397685,106.766807 18.8064293,106.812121 C18.7728929,106.857658 18.8064293,106.857658 18.8464758,106.842479 C18.8867196,106.8273 19.1348894,106.766807 19.0336882,106.8273 C18.9340652,106.887793 18.9604998,106.910785 18.9877235,106.910785 C19.0143554,106.910785 19.0474973,106.910785 18.9808189,106.963912 C18.9133515,107.016816 18.7997221,107.100301 18.8999369,107.085122 C19.0011381,107.070166 19.1007611,107.070166 19.0607146,107.107891 C19.0204709,107.145839 19.1684258,107.252093 19.1883504,107.237137 C19.208275,107.221734 19.2619334,107.237137 19.2353015,107.29763 C19.208275,107.358123 19.1950577,107.380669 19.2889598,107.373303 C19.3828619,107.365713 19.3891746,107.380669 19.3757601,107.418617 C19.3625427,107.456565 19.3960792,107.464154 19.3960792,107.464154 C19.3960792,107.464154 19.8584878,107.919082 20.1465068,108.093642 C20.4345258,108.267979 20.6560637,108.328695 20.789815,108.518211 C20.9239608,108.707727 20.7497685,108.753265 20.95079,108.82916 C21.1516142,108.905056 21.4133958,108.722906 21.8081397,108.988541 C22.2036726,109.25373 22.5124053,109.337215 22.8404708,109.481193 C23.1687336,109.625395 23.7181397,109.723613 24.515321,109.65553 C25.3126997,109.587224 25.4535528,109.511552 25.8960368,109.435656 C26.3381262,109.35976 26.8478804,109.101938 27.5042086,109.07158 C28.1609314,109.041445 28.6367546,108.920235 29.2461317,109.170244 C29.8557062,109.4207 30.3719704,109.504185 30.5595773,109.579858 C30.747776,109.65553 30.9821367,109.177834 31.1894709,108.950593 C31.3975942,108.722906 31.3638605,108.23762 31.4445453,107.82823 C31.52523,107.418617 31.6921232,107.380669 31.7992426,106.979091 C31.9065593,106.577291 31.7457816,106.175267 32.0410997,105.993341 C32.3352342,105.811414 32.3220168,105.682615 32.7712081,105.849362 C33.2200048,106.016109 33.9035568,106.326835 34.3188171,106.326835 C34.7346692,106.326835 35.1566367,106.349604 35.8129649,105.925481 C35.8129649,105.925481 36.469885,105.303359 36.8318815,105.204695 C37.1936807,105.106254 36.8589079,105.189739 36.8589079,105.189739 C36.8589079,105.189739 36.0141837,105.932847 35.5853116,106.433089 C35.5853116,106.433089 35.3779773,106.584657 35.9542126,106.523941 C35.9542126,106.523941 35.6460717,106.394918 35.3039999,106.986681 C35.3039999,106.986681 36.2753735,106.835113 36.5975208,107.054764 C36.5975208,107.054764 35.914758,107.208118 35.66284,107.513933 C35.6519899,107.527549 35.6421263,107.541166 35.6326572,107.555452 C35.4115138,107.888947 35.853406,107.752335 35.5385578,108.19186 C35.5385578,108.19186 35.7460893,108.343874 36.0550193,107.987388 C36.0550193,107.987388 35.4914095,108.798802 35.0090763,108.851929 C35.0090763,108.851929 35.6792137,108.965773 36.1280104,108.488076 C36.1280104,108.488076 35.4468257,109.685219 34.1503457,109.515123 C34.1418629,109.513784 34.1331829,109.512668 34.1248974,109.511552 C32.8110573,109.322036 35.5316532,110.648871 36.5371552,109.90554 C36.5371552,109.90554 35.6387726,110.603333 34.6139379,110.36828 C34.6139379,110.36828 34.8554004,110.580565 35.04281,110.535027 C35.04281,110.535027 34.4326437,111.08103 33.6354624,110.542617 C33.6354624,110.542617 33.6155378,111.08103 33.9976562,111.20224 C33.9976562,111.20224 32.7781127,109.960452 32.9317886,110.307564 C32.9519105,110.353324 33.0791517,111.551137 33.3409334,111.687526 C33.3409334,111.687526 33.0657371,111.566092 32.8380838,110.345735 C32.6104304,109.124707 32.6907206,109.860449 32.6907206,109.860449 C32.6907206,109.860449 32.7579908,110.823208 32.8513011,110.982365 C32.8513011,110.982365 32.46287,110.443953 32.4159189,109.882994 C32.3693624,109.322036 32.2817731,109.109528 32.1077781,109.049035 C31.9339803,108.988541 31.7927326,108.980728 31.7457816,109.155289 C31.6992251,109.329849 31.1294998,110.224525 31.1294998,110.224525 C31.1294998,110.224525 31.9667277,111.012724 32.0140732,112.051602 C32.060827,113.090256 31.9876386,112.832434 31.9602176,113.393393 C31.9339803,113.954574 31.7526861,114.334053 31.9602176,114.68228 C32.1679464,115.031177 32.7846227,115.675844 33.0657371,115.857547 C33.3474434,116.039696 33.5750968,115.86536 33.8165593,116.229212 C34.0576272,116.593065 34.151332,117.139291 34.5133285,117.844005 C34.8747332,118.549834 34.9222761,118.852747 35.3909974,119.307675 C35.859916,119.762826 35.9206762,119.74787 35.7802176,119.876446 C35.6387726,120.005023 35.7129474,120.156814 35.887337,120.210164 C36.0615293,120.263068 36.095263,120.096544 36.2155997,120.111723 C36.336331,120.126679 36.4566677,120.118866 36.5036187,120.316195 C36.5503725,120.512854 36.5841062,121.567134 36.5841062,121.567134 C36.5841062,121.567134 36.095263,121.484095 35.9940618,121.233193 C35.9940618,121.233193 35.887337,121.35485 35.8399914,121.135422 C35.7934349,120.915101 35.2572461,120.558615 35.2572461,120.558615 C35.2572461,120.558615 35.0295927,120.512854 34.9425952,120.361286 C34.8554004,120.210164 34.3055998,119.322631 34.1248974,118.905651 C33.9439978,118.488895 33.6956307,118.200714 33.5417576,118.019011 C33.3876871,117.836861 33.1663465,117.700472 33.1466192,117.684847 C33.1261028,117.669891 32.9252786,117.473009 32.7374744,117.27568 C32.550262,117.078574 31.9535103,116.73749 31.6789059,116.548197 C31.4046961,116.358458 30.1245897,115.62294 30.0638295,115.524499 C30.0638295,115.524499 29.9239628,115.835225 30.344944,116.282786 C30.7677006,116.729677 31.0286932,116.858477 31.0421078,117.245098 C31.0557196,117.63239 30.9416956,117.655158 30.6805058,117.821236 C30.4191187,117.98843 30.1309024,118.503851 29.6621811,119.019718 C29.1926707,119.535139 29.2467236,119.466833 29.0389948,119.922207 C28.8310687,120.376911 28.8178514,120.338517 28.8178514,120.505488 C28.8178514,120.672458 28.7168475,120.740764 28.5629743,120.702816 C28.5629743,120.702816 28.3554428,120.763533 28.4560522,120.86934 L28.6973175,121.173146 C28.6973175,121.173146 28.4422431,122.439042 28.013371,122.416496 C28.013371,122.416496 27.7857176,121.991704 27.7857176,121.764463 C27.7857176,121.536553 27.6385517,121.567134 27.6924073,121.301946 C27.7458684,121.036311 27.7188419,120.626921 27.7920303,120.460173 C27.8664024,120.293203 28.0068609,119.846088 28.227807,119.634027 C28.4489504,119.421072 28.9516027,118.655419 29.159726,118.39023 C29.3670603,118.124595 29.641862,117.791101 29.3335238,117.328807 C29.0251857,116.86629 28.8776252,116.919193 28.6097281,116.540385 C28.3420283,116.160906 27.9528081,115.759552 27.8593005,115.584992 C27.7653984,115.410655 27.8261586,115.448603 27.6584763,115.129841 C27.4903995,114.811526 27.5245278,114.55348 27.2426242,114.780944 C26.9615098,115.008631 24.2140847,116.016928 22.5189153,116.024741 C22.5189153,116.024741 22.304282,115.971167 22.2510182,116.380781 C22.1973599,116.790394 22.190258,117.101343 22.1567216,117.480375 C22.1229879,117.85963 22.1300897,118.625284 22.1166751,118.98177 C22.1030633,119.338257 22.0699213,119.542729 22.1300897,119.656349 C22.190258,119.769969 22.310792,120.058373 22.4449379,120.172439 C22.579281,120.28606 23.1758354,120.778712 23.4098015,120.892332 C23.6445567,121.006176 23.7646962,120.998363 23.8921347,121.104617 C24.0197705,121.210648 23.9594049,121.29391 24.0667216,121.29391 C24.173841,121.29391 24.2075747,121.089438 24.4014943,121.043677 C24.5960058,120.998363 24.6565687,121.066669 24.6565687,121.066669 C24.6565687,121.066669 25.3985135,121.853082 25.4359955,122.113806 C25.4383627,122.130771 25.4379682,122.14595 25.4336282,122.158451 C25.366358,122.355556 24.951295,122.196175 24.676296,122.204211 C24.676296,122.204211 24.4888864,122.302653 24.4082016,122.204211 C24.3281087,122.105324 24.2742531,122.121173 24.2075747,122.105324 C24.1403045,122.090368 23.9059438,122.014695 23.7716007,121.991704 C23.6378494,121.968935 23.5439474,121.99974 23.4567526,121.991704 C23.3699523,121.983891 23.3362186,121.9388 23.1484144,121.779419 C22.9610048,121.620038 23.0345877,121.58209 22.8268589,121.392797 C22.6191302,121.203281 21.9821347,120.581383 21.8754099,120.558615 C21.7680932,120.536292 21.3526357,120.172439 21.3526357,120.172439 L21.3127865,120.111723 C21.3127865,120.111723 21.0446921,119.580676 21.0780313,119.117936 C21.1113704,118.655419 21.0107611,118.44358 20.9371781,118.041333 C20.8635952,117.639533 20.8030323,117.290859 20.7227421,117.010268 C20.6422546,116.729677 20.6292345,116.509803 20.6221327,116.411362 C20.6156227,116.312921 20.3137945,115.820269 20.0792366,116.047286 C20.0792366,116.047286 19.3690528,116.600878 18.9066442,117.055582 C18.4442356,117.51051 17.9755143,117.965661 17.9551951,117.98843 C17.9352705,118.011198 18.0224653,117.904944 17.9153459,118.033967 C17.8082265,118.16299 17.7879074,118.132185 17.7340517,118.298932 C17.6805907,118.466126 17.5870832,118.51903 17.4998884,118.655419 C17.4124963,118.791808 16.9704069,120.6421 16.9834269,120.953049 C16.9834269,120.953049 17.0106506,121.210648 16.80233,121.233193" id="horse" fill="#2684FF" mask="url(#mask-2)"></path>
                <path d="M142.406813,70.9413017 C142.406813,70.9413017 142.406813,71.4198336 141.620428,71.7789914 C141.620428,71.7789914 141.075847,72.0182574 140.471338,72.3173398 C139.866567,72.6166812 138.052517,72.856206 136.41982,75.7882496 C136.41982,75.7882496 133.638032,79.3187169 134.484606,82.3105769 C134.484606,82.3105769 134.72641,83.2083421 133.516868,83.5074245 C133.516868,83.5074245 130.769886,83.772585 132.669247,85.039089 C132.669247,85.039089 135.028926,84.8837216 135.754336,85.1232464 C135.754336,85.1232464 135.815049,85.6017783 137.387295,85.5417029 C137.387295,85.5417029 139.267292,84.9735758 140.358025,85.2770603 C140.440981,85.3001064 140.519489,85.3285905 140.592239,85.3625124 C141.620428,85.8410443 143.132224,85.6017783 142.345839,84.7643475 C142.345839,84.7643475 142.345839,84.0457729 141.802042,84.1061073 C141.802042,84.1061073 144.16015,84.7042721 144.099961,83.8067659 C144.099961,83.8067659 143.858158,82.7893678 142.165009,83.1485256 C142.165009,83.1485256 143.178805,82.5099652 143.516649,81.9496065 C143.565847,81.8680385 143.600391,81.7882832 143.615831,81.7124121 C143.736994,81.1137293 144.765183,84.8236461 145.430142,85.3024369 C145.430142,85.3024369 146.034913,85.9609362 146.458069,85.9609362 C146.882011,85.9609362 147.425807,86.0805691 147.54697,85.9011197 C147.667349,85.7214113 147.970388,85.063171 147.304905,84.943538 C147.304905,84.943538 146.700134,84.5846391 146.519043,84.4650062 C146.519043,84.4650062 145.24879,80.1564066 145.551306,79.7379502 C145.551306,79.7379502 146.640207,82.8491842 146.760847,83.5074245 C146.760847,83.5074245 147.002651,84.5846391 147.667349,84.6441967 C147.667349,84.6441967 149.059028,84.6441967 148.998053,84.1061073 C148.998053,84.1061073 148.998053,83.447867 148.332832,83.567241 C148.332832,83.567241 147.788512,83.6871329 147.728061,83.2083421 C147.728061,83.2083421 147.184003,78.7801096 147.607421,77.3439961 C147.607421,77.3439961 149.723726,73.8135287 147.607421,70.5223274 C147.607421,70.5223274 146.700134,67.8295498 146.034913,67.4706508 C146.034913,67.4706508 145.914011,65.0766967 144.462666,64 C144.462666,64 143.435001,65.0766967 143.435001,65.7351959 C143.435001,65.7351959 142.104035,65.9149043 142.104035,66.2139868 C142.104035,66.2139868 140.471338,64.7776143 140.108371,65.0171392 C140.108371,65.0171392 141.015657,66.6327022 140.955468,67.231126 C140.955468,67.231126 140.411148,69.1460303 141.015657,69.5652636 C141.015657,69.5652636 141.317912,70.8216687 142.406813,70.9413017" id="cat" fill="#2684FF" mask="url(#mask-2)"></path>
                <path d="M21.3986109,78.3858079 C21.3546523,78.5357252 21.2808737,78.6843039 21.1998973,78.7913877 C21.1279182,78.7306177 21.0759905,78.6615486 21.0243198,78.5689212 C20.9615951,78.4532707 20.9184077,78.3199514 20.8986135,78.1823487 C20.8793334,78.0444784 20.8806187,77.9039309 20.9099245,77.7698085 C20.9333177,77.652284 20.9929575,77.54172 21.0700779,77.4675645 C21.1076098,77.431156 21.1484837,77.4073299 21.1790748,77.3992986 C21.1942418,77.3958184 21.2068381,77.393409 21.2163496,77.3952829 C21.2220051,77.3963538 21.2225193,77.3963538 21.2225193,77.3960861 C21.2268894,77.3974246 21.2343444,77.4001017 21.2495114,77.4049205 C21.2770177,77.4140226 21.3492538,77.495674 21.3860146,77.6134661 C21.4261172,77.7301875 21.4484821,77.8731443 21.4513099,78.0040542 C21.4538806,78.1338933 21.4340863,78.2629293 21.3986109,78.3858079 M22.8790661,77.6710237 C22.8081153,77.5243189 22.7196839,77.4308883 22.6579876,77.3735985 C22.5952629,77.3163087 22.5572169,77.2927502 22.5572169,77.2927502 L22.4685284,77.4204476 C22.4685284,77.4204476 22.4988624,77.4432029 22.5461629,77.495674 C22.5926923,77.5478773 22.6577305,77.6305996 22.7042598,77.754549 C22.7520745,77.87716 22.780609,78.0407304 22.7618431,78.2254499 C22.7448766,78.4090986 22.6795813,78.6163057 22.5487336,78.7895138 C22.4166006,78.9632572 22.2243137,79.09149 21.9962943,79.0810493 C21.9253435,79.0797108 21.8507937,79.0687347 21.7754728,79.0532076 C21.8585058,78.8925819 21.9250864,78.7306177 21.9698162,78.5501815 C22.014289,78.3676037 22.0351115,78.1729789 22.0225152,77.9767479 C22.0083765,77.7826585 21.9734152,77.5966005 21.8980942,77.4027788 C21.8196885,77.2177916 21.6993806,76.9878292 21.4148062,76.8818162 C21.4037523,76.8745881 21.2646784,76.840589 21.21018,76.8502265 C21.1387151,76.8507619 21.0713632,76.8676276 21.0096669,76.8901152 C20.8865313,76.9369644 20.7909019,77.0124584 20.7137815,77.0951807 C20.5613401,77.2611605 20.4708521,77.4675645 20.4382045,77.6809289 C20.4065851,77.8779631 20.4148113,78.0784775 20.4518291,78.2674803 C20.489361,78.4572863 20.5577412,78.6385256 20.6574836,78.8015607 C20.6981003,78.8714328 20.7518276,78.9391633 20.8109532,79.0015396 C20.8086396,79.0015396 20.8065831,79.0023428 20.8045265,79.0026105 C20.7137815,79.0063584 20.6579977,78.9940438 20.5484867,78.9600447 C19.8957908,78.8382369 19.8299814,78.1740497 19.8299814,78.1740497 L19.8289531,78.1743174 C19.8035034,77.7909575 19.7361515,77.4721156 19.677797,77.2817741 C18.7137917,74.1313694 14.895045,72.7341938 10.9534198,73.0415242 C7.01256583,73.3499255 5.13982471,76.1466861 4.88918331,76.1812206 C5.06527496,76.1571268 3.41644015,75.6589195 3.01721339,75.5654889 C2.58585312,75.464027 2.26091904,75.2862679 2.03135722,75.2570876 C1.97788706,76.2074561 3.50512865,76.9490113 3.60898416,77.7200145 C3.79741508,79.106214 1,79.6204839 1,79.6204839 L1.24575711,81.5201501 C1.24575711,81.5201501 2.64934894,81.6556111 3.09921812,81.9276039 C4.29355652,83.2562459 5.55421849,83.0118272 6.98094645,83.4540832 C6.96963545,84.6138005 5.67838238,85.0956775 5.58275305,85.8308076 C5.75884469,85.9022861 5.92439655,85.5325793 6.07863741,85.5553346 C6.22336675,85.578893 6.09637511,85.8929162 6.3567851,86 C7.46654809,85.8953256 8.11461678,84.5423221 8.34160791,83.365739 C10.2583077,83.6163151 9.17399442,85.0153647 8.73595038,85.9341435 C8.96114204,85.858114 9.50844002,85.5325793 9.71460864,85.5671138 C9.71460864,85.5671138 9.96679245,86.0273064 10.4125485,85.7274718 C10.4133197,84.9264851 10.9161449,84.2714001 10.6536784,83.5317189 C12.0289928,83.5376085 13.392482,83.6776205 15.6713907,83.1970821 C15.4757619,84.8394795 14.5243528,84.9371935 14.2168994,85.7462114 C14.3076444,85.7700376 14.6665115,85.501525 14.7521152,85.5191938 C14.8418319,85.5336501 14.8587984,85.8348233 14.744146,85.8348233 C16.4438803,85.9574342 16.8940066,84.2106301 17.1744679,82.6670174 C18.3454131,83.4342727 17.3639271,84.861164 16.9770396,85.7462114 C17.4004307,85.6559934 17.288349,85.6733945 17.4703533,85.9531508 C18.8235597,85.9943781 19.2682876,84.25855 19.0161038,82.8913579 C18.9191891,82.3428212 18.5631498,82.0022948 18.4819162,81.6764924 C18.7418121,81.4583092 19.0466949,81.0254231 19.2921949,80.687306 C19.5981059,80.2659314 19.6646866,80.1028963 19.7705986,79.4579842 C20.0410343,79.6472548 20.3400045,79.7396146 20.7878171,79.708828 C20.96468,79.6965134 21.229203,79.6207516 21.3929554,79.5061719 C21.4428266,79.4724406 21.4890989,79.4320164 21.5333146,79.3889152 C21.689612,79.4269299 21.8477089,79.4424571 22.0073482,79.4357644 C22.1667304,79.4304102 22.3402514,79.3723172 22.4682713,79.2839731 C22.599376,79.1961644 22.7024603,79.0834587 22.7798378,78.964328 C22.9345928,78.7241926 22.9939756,78.4655853 22.9996311,78.2396385 C23.0050295,78.0123532 22.9505311,77.8158545 22.8790661,77.6710237" id="pig" stroke="#0076FF" mask="url(#mask-2)"></path>
                <path d="M78.5795627,40.8321314 C77.6830129,41.2818256 76.6307862,41.5461656 75.5086253,41.676756 C75.2342479,41.7244109 74.9411141,41.7286235 74.6560188,41.7586382 L74.2246246,41.7949718 L73.7948381,41.8068197 C73.468211,41.8234068 73.2133937,41.8041869 72.9416957,41.7965515 C72.6713375,41.7839138 72.3808832,41.7533725 72.1038263,41.7209882 C71.5448894,41.6472678 71.0017614,41.5169408 70.4846243,41.3526497 C69.9685589,41.1851992 69.4956329,40.9435018 69.1194357,40.6594152 C69.0194916,40.5914872 68.9506293,40.5090784 68.861671,40.4379909 C68.7842344,40.361901 68.725554,40.2815984 68.6545482,40.2070882 C68.5551399,40.0483262 68.4562676,39.8982526 68.4350998,39.754498 C68.4042859,39.6836738 68.4147359,39.6125863 68.404018,39.5433418 L68.4026782,39.5346534 L68.4109846,39.4493484 C68.419023,39.3769445 68.4262576,39.2545161 68.4399228,39.2863738 C68.4503728,39.2837409 68.4527843,39.2808448 68.4487651,39.273736 C68.4608227,39.2495136 68.4846699,39.2100206 68.4986032,39.177373 L68.5213786,39.1244523 L68.5623745,39.069162 C68.5894371,39.0320386 68.6138203,38.993862 68.6390073,38.9546322 C68.8900733,38.6473764 69.309142,38.3298523 69.7884987,38.0655122 C69.8311022,38.1595056 69.8696865,38.257975 69.9203285,38.3459128 L70.0864554,38.6118326 C70.5475918,39.311386 71.1786063,39.8200564 71.8474013,40.1923442 C72.5202155,40.563842 73.2447434,40.8044863 73.9888315,40.9374462 C74.1804134,40.9637749 74.3518993,41.0053743 74.5614336,41.0164323 C74.7602501,41.0303865 74.9802344,41.0477635 75.1640458,41.051976 L75.6479576,41.0451306 L75.6782356,41.044604 L75.7618349,41.0406547 L75.8274819,41.0359155 L75.9593117,41.0261739 C76.0471982,41.0203816 76.1353527,41.0130096 76.2235071,41.003268 C76.9287429,40.9358665 77.6409453,40.8126482 78.3560951,40.607811 C78.8509927,40.4598437 79.3485698,40.2810719 79.8437353,40.0167318 C79.8378405,40.0217342 79.8319456,40.0272632 79.8260508,40.0322657 C79.437796,40.3360988 79.0377516,40.6204487 78.5795627,40.8321314 M75.1021501,36.6521879 C75.721107,36.6079557 76.339796,36.6008469 76.9367813,36.6453424 C77.5308192,36.6879949 78.1122636,36.7819883 78.5908164,36.950492 L78.7665895,37.0139441 C78.8247339,37.0350071 78.869749,37.0634421 78.9225345,37.0866113 C79.0342683,37.1311068 79.1066139,37.1898198 79.1928927,37.2385279 C79.2373719,37.2630136 79.2558602,37.2932916 79.2906933,37.317514 C79.3241866,37.342263 79.3568761,37.3667486 79.3700055,37.3925508 C79.3796516,37.4049253 79.3901015,37.4165099 79.4010873,37.4278312 L79.4182359,37.4444183 L79.422791,37.4486309 C79.38769,37.5176121 79.2689896,37.6547846 79.1001831,37.7766864 C78.7459576,38.0444492 78.2272127,38.2711393 77.6913193,38.4327975 C77.1489951,38.594719 76.5723738,38.7039831 75.987982,38.7661188 C75.9151005,38.7748072 75.8416831,38.781916 75.7682657,38.787445 L75.595708,38.8027157 L75.1120641,38.8174597 C74.9740716,38.8143003 74.8730557,38.8008726 74.7516758,38.7969233 C74.6396741,38.7971866 74.4973944,38.7632226 74.3719953,38.749795 C73.8570017,38.6671229 73.3602285,38.507571 72.9307099,38.2795645 C72.5017272,38.0531377 72.1440183,37.7535172 71.9272494,37.433097 C71.8857177,37.3717511 71.8541,37.3106685 71.8222143,37.2493227 C72.8773885,36.9354846 73.9931186,36.733017 75.1021501,36.6521879 M87.9359942,38.9980746 C87.8089875,38.4672881 87.5260357,37.9715188 87.1152734,37.568953 C86.7061188,37.166124 86.1554883,36.8638706 85.5443018,36.7427586 C84.9301679,36.6082189 84.2881676,36.7001061 83.7123501,36.8891461 C83.5703383,36.9412769 83.4213599,36.988142 83.2833674,37.0494879 C83.1512696,37.1182058 83.0183681,37.1871869 82.8849306,37.2564314 L82.7847185,37.3096154 L82.7346125,37.3362074 L82.7096934,37.349635 C82.7330048,37.3317315 82.6494054,37.3893913 82.6507452,37.3883382 L82.4915848,37.4978655 C82.3846741,37.5723758 82.284194,37.6345115 82.1520963,37.7511476 C82.03286,37.8533029 81.8900444,37.9670429 81.7919759,38.0660388 C81.7399942,38.1168532 81.6877446,38.1684574 81.635763,38.2195351 C81.7078406,38.0320748 81.7627697,37.8267109 81.781258,37.60476 C81.811804,37.2574846 81.751248,36.9002042 81.6183464,36.5863661 C81.5781544,36.4957954 81.5336753,36.4065411 81.4857128,36.320183 L81.4197979,36.2130252 C81.3975583,36.1795878 81.4465926,36.250412 81.3656727,36.1316696 L81.3348588,36.0924398 L81.2721593,36.0142436 L81.1438128,35.860484 C81.0580698,35.7527997 80.9650923,35.6693377 80.8702392,35.5887719 C80.775654,35.5100491 80.6794611,35.4181619 80.5821965,35.3552364 C80.3879351,35.2262258 80.1877789,35.092476 79.9919098,35.0050647 C79.7930934,34.9000132 79.5974923,34.8244499 79.4021591,34.7533624 C78.6200226,34.474015 77.8641449,34.3552725 77.1216646,34.2952431 C76.3791842,34.2399529 75.6501012,34.2499578 74.9290565,34.3010354 C74.1828249,34.3560624 73.4448996,34.4537419 72.7150128,34.5967067 C72.8489861,34.4579544 72.9891223,34.3223617 73.1386365,34.1946675 C73.9084475,33.5211795 74.8567109,32.9748591 75.796668,32.2339696 C76.2620915,31.8606287 76.7446635,31.4154105 77.1098749,30.8080075 C77.2918107,30.5078604 77.4338225,30.1647975 77.5099194,29.8143626 L77.5251923,29.7488041 L77.5329628,29.7161565 L77.5442165,29.6498082 L77.5578818,29.5563413 C77.5667241,29.4886766 77.5766381,29.4441811 77.5844085,29.3580863 C77.5983418,29.1840536 77.6146865,28.9950136 77.6077199,28.8483627 C77.5991456,28.226479 77.4890195,27.6235519 77.2333983,27.0509028 C76.9831361,26.4824662 76.5750532,25.939042 76.0228151,25.5662277 C75.4729884,25.1878843 74.8205381,25.0241198 74.2506154,25.0085859 L74.142097,25.0033202 L74.0882397,25.0006873 C74.1453124,24.9983177 73.9791854,25.0027936 73.9896353,25.0033202 L73.9692714,25.0051632 L73.8085034,25.0201705 C73.7018606,25.0301754 73.5960216,25.0401803 73.4907185,25.0501852 C73.2283987,25.09863 72.9047191,25.1734035 72.6614234,25.2642375 C72.180727,25.4580167 71.7490649,25.7081393 71.3991264,26.0027574 C71.3104361,26.0754246 71.2225495,26.1470387 71.1354669,26.2181261 C71.0569585,26.2950059 70.978986,26.3708326 70.9015494,26.4461326 C70.8254525,26.5219593 70.747748,26.5959429 70.6756703,26.6717696 C70.6078798,26.7499658 70.5406251,26.8273721 70.4741744,26.9037254 C70.4069197,26.9798153 70.340201,27.0551153 70.2740182,27.1296256 C70.214534,27.2072952 70.1558536,27.2839117 70.0974413,27.3600016 C70.038225,27.4358283 69.9795447,27.5108651 69.9216682,27.5848487 C69.862184,27.6588323 69.8211882,27.7391348 69.7445554,27.8004807 C69.6033475,27.9268584 69.3538891,28.0024218 69.1773122,28.114582 C68.9945726,28.2243727 68.8989156,28.3754994 68.7783396,28.5113555 C68.6682135,28.6508975 68.5680014,28.7901763 68.4806507,28.932088 C68.3874053,29.0721567 68.3196148,29.2164379 68.2740638,29.3609824 C68.1730479,29.6498082 68.1408943,29.9360011 68.1135637,30.1974451 C68.0806063,30.458889 68.0722999,30.7021661 68.0878409,30.9264866 C68.096951,31.149754 68.1358033,31.3538013 68.1904644,31.5354693 C68.2491448,31.7176639 68.2936239,31.8745829 68.3608786,32.0101757 C68.3933001,32.0773139 68.4230422,32.138923 68.4501048,32.1952664 C68.4750239,32.2510833 68.5034262,32.3013711 68.5655899,32.3466564 C68.6759839,32.4372271 68.8622069,32.5043653 69.02753,32.5475444 C69.1797237,32.5907234 69.2997639,32.6112598 69.2997639,32.6112598 L69.5395762,32.6112598 C69.5395762,32.6112598 69.6609561,32.5907234 69.8158293,32.5525468 C69.9840998,32.5146335 70.174342,32.4606597 70.289827,32.3911519 C70.3546701,32.356398 70.3860199,32.3171683 70.4141543,32.2739892 C70.4447002,32.2313367 70.4779256,32.1844717 70.5140984,32.1336573 C70.5891235,32.0333449 70.6716511,31.9185518 70.7571261,31.7924374 C70.8361704,31.6652698 70.9165544,31.5262543 70.9950628,31.3751276 C71.0333792,31.2993009 71.0660687,31.219525 71.0974184,31.1365896 C71.1325194,31.0549707 71.1689602,30.9701923 71.2067407,30.8819911 C71.2421097,30.7945799 71.2785504,30.7040092 71.3165988,30.610279 C71.3602742,30.5191817 71.3980546,30.4241351 71.4243134,30.3219798 C71.4473568,30.2179814 71.4655772,30.1108237 71.4754912,29.9968204 C71.4875489,29.883607 71.4805822,29.7567027 71.4832617,29.6295351 C71.4854053,29.5028941 71.5159512,29.3846783 71.4623619,29.2177543 C71.4093084,29.0505671 71.3345513,28.8638967 71.345805,28.7088207 C71.3602742,28.5553244 71.4583427,28.4497463 71.5239896,28.320999 C71.5612342,28.2588633 71.5987467,28.196201 71.6367952,28.1327488 C71.6815423,28.0758788 71.7268253,28.0184823 71.7726442,27.9605592 C72.140803,27.4955944 72.6753567,27.1412102 73.2546575,26.9953492 C73.3294146,26.9637548 73.3813963,26.9753394 73.4438279,26.9592789 C73.5100107,26.9503271 73.548863,26.9332135 73.6362136,26.9211023 C73.7415167,26.91531 73.8478915,26.909781 73.9550702,26.9037254 L74.0646604,26.897933 C74.0676078,26.897933 74.0710911,26.8976698 74.0783257,26.8976698 L74.1051204,26.9003026 L74.1592456,26.9053051 C74.4550588,26.9192593 74.7026416,26.9961391 74.9054772,27.142 C75.1088488,27.2865446 75.2859616,27.5119182 75.4143081,27.8128552 C75.5450661,28.1103694 75.6083015,28.4829205 75.6061579,28.8494159 C75.6099092,28.9505181 75.5962439,29.0094944 75.595708,29.085321 C75.5938324,29.1237609 75.5777556,29.2024837 75.5694492,29.2593537 L75.5573916,29.3343905 L75.5539083,29.3462384 L75.5464058,29.3728303 C75.5129124,29.5160584 75.4555718,29.6519145 75.3658097,29.7925097 C75.1929841,30.0737002 74.8918119,30.3691082 74.5113276,30.6605668 C73.7503589,31.2508561 72.7367165,31.8121839 71.7579071,32.6286367 C71.2694402,33.0372581 70.7871361,33.5211795 70.385484,34.1019905 C70.284736,34.246535 70.1898829,34.3963453 70.1022643,34.5527377 C70.0157175,34.6972823 69.9155054,34.9084384 69.847447,35.0556158 L69.7606322,35.2599265 L69.7496464,35.2854653 C69.7574169,35.2659821 69.7268709,35.3394391 69.7257992,35.3462846 L69.7030237,35.4186885 L69.6791764,35.4968847 C69.3340611,35.641166 68.9913572,35.8025609 68.6526725,35.9873883 C67.9881647,36.3575698 67.3204414,36.8059474 66.7446239,37.5070806 L66.5428601,37.7956431 L66.4450595,37.9420306 L66.3598524,38.1081647 C66.3041195,38.2224312 66.2502622,38.3264296 66.1996203,38.4514909 C66.1500502,38.5999847 66.1069107,38.7526911 66.0715418,38.9056609 C66.0267947,39.0904883 66.0337613,39.1320876 66.0225075,39.2200255 L66.0104499,39.3406109 L66.0075025,39.3708889 C66.0045551,39.4314449 66.010182,39.2779486 66,39.514117 L66.0061628,39.608637 C66.0241152,39.8608659 66.0439433,40.1141479 66.1216478,40.3505796 C66.2422238,40.8402933 66.4940938,41.2486514 66.759629,41.6167266 C66.9035163,41.782334 67.0482076,41.9537338 67.2028128,42.1009112 C67.3617052,42.2359775 67.5171143,42.387894 67.6835092,42.5024238 C68.3431941,42.9850288 69.0454824,43.307292 69.7456272,43.5273999 C70.4463079,43.7477711 71.1512757,43.8786247 71.8447218,43.944973 C72.1938564,43.973408 72.5298616,43.996314 72.8832833,44 C73.2361692,43.9989469 73.6035241,44.0010531 73.8945142,43.9747245 L74.3896798,43.9420769 L74.8749313,43.8841537 C75.1978071,43.8409747 75.5163958,43.8191219 75.83686,43.7461914 C77.1090711,43.5247671 78.3772629,43.144844 79.5077301,42.4976847 C80.0797964,42.191482 80.5862157,41.7820708 81.0462802,41.368447 C81.5031293,40.9453448 81.8812022,40.4909116 82.2287291,40.070179 C82.3956599,39.8677114 82.560983,39.6668234 82.7249664,39.4677785 L82.963171,39.2015954 C83.0440909,39.1089184 83.1067905,39.0594204 83.1775284,38.9838571 C83.2313857,38.9180353 83.3457989,38.8335202 83.446279,38.7542709 L83.5898984,38.6410575 L83.5965971,38.6371082 L83.6303584,38.6165718 L83.6978809,38.5752357 C83.7873751,38.5188923 83.8766014,38.4628122 83.9652918,38.4069954 C84.0555898,38.3588139 84.1480314,38.3261663 84.2383295,38.2829872 C84.9639292,37.9538785 85.7050698,38.0618262 86.2246185,38.4991458 C86.4826512,38.7129348 86.6771805,38.999391 86.7736414,39.2950622 C86.7918617,39.3693092 86.8100821,39.4430295 86.8280345,39.5164866 C86.830714,39.5888905 86.8363409,39.6607678 86.8446472,39.7331717 C86.8352691,39.7837228 86.8328576,39.831641 86.8374127,39.8853516 C86.8197282,39.9640744 86.775517,40.0733385 86.7463108,40.164699 L86.7388083,40.1860253 L86.7136213,40.2318372 L86.654941,40.3403114 C86.6203758,40.4148216 86.5732172,40.4832762 86.5228432,40.5496246 C86.433617,40.6891666 86.3183999,40.8118584 86.2063981,40.9348134 C85.970605,41.1715083 85.7109647,41.3837176 85.4341757,41.5585401 C84.8838131,41.9145041 84.30612,42.1604141 83.7715663,42.3457681 C82.6989756,42.7251646 81.786349,42.8586511 81.1746267,42.9392169 C80.8697033,42.9802897 80.6285512,43.002669 80.4651037,43.0139904 C80.3024601,43.027418 80.2185928,43.0345268 80.2185928,43.0345268 L80.2239517,43.2978137 C80.2239517,43.2978137 80.308087,43.3014997 80.4709986,43.3088718 C80.6331063,43.3180868 80.8747943,43.3278284 81.1984739,43.3251956 C81.8391345,43.3120312 82.7836467,43.2833329 83.9711866,43.0084614 C84.5612053,42.8628637 85.2128517,42.6582897 85.8862018,42.3078548 C86.2238147,42.1356651 86.5606237,41.9139775 86.8872508,41.6420021 C87.0464111,41.4993006 87.2090548,41.3534396 87.3518704,41.1757209 C87.4279672,41.0917324 87.5008488,41.0035313 87.5630124,40.9034822 L87.6616168,40.7568314 L87.710651,40.6828477 L87.7229766,40.6641544 C87.705828,40.704174 87.7602212,40.588591 87.7572738,40.59412 L87.7728147,40.5598927 C87.8140785,40.4627399 87.8574858,40.3866499 87.8982137,40.2700138 C87.937066,40.1223098 87.9710952,39.9672338 87.9954784,39.8129477 C87.9994976,39.6778815 88.0008373,39.540709 87.9994976,39.4024833 C87.9858323,39.2676804 87.9595735,39.1341939 87.9359942,38.9980746" id="snake" stroke="#0076FF" mask="url(#mask-2)"></path>
                <path d="M116.163378,37.8871791 L115.930535,37.8612146 C115.930535,37.8612146 115.985558,37.7047892 115.889602,37.7439487 C115.889602,37.7439487 116.14951,37.4832397 116.012846,37.4832397 C116.012846,37.4832397 116.820752,36.9882118 116.423957,37.0531231 L115.752715,37.3138321 C115.752715,37.3138321 116.505597,36.3886875 116.218401,36.5191485 L115.793423,36.8707332 C115.793423,36.8707332 116.437377,35.8153405 116.355065,35.5546315 C116.355065,35.5546315 116.286622,35.4503479 116.177022,35.7893761 L115.797002,36.4127366 C115.780003,36.4408293 116.13609,35.8285356 115.97169,35.7500037 L115.711559,36.2192799 C115.711559,36.2192799 116.13609,34.9944796 115.643115,34.2908845 C115.643115,34.2908845 115.273161,33.5870766 115.533292,34.3689908 C115.533292,34.3689908 115.081473,33.6911474 115.314316,34.3300441 C115.314316,34.3300441 115.944402,35.4637558 115.122629,36.2062976 C114.301079,36.9490523 113.616193,38.2130121 113.38335,38.7603946 C113.38335,38.7603946 112.588864,39.6463796 113.287394,40.4150988 C113.287394,40.4150988 113.123219,39.9460354 113.561617,40.2978329 C113.561617,40.2978329 114.054592,41.2099952 114.109168,41.262137 C114.163968,41.3142788 114.095524,42.0568206 114.026856,42.5260968 C113.958636,42.9951602 113.547526,44.8716266 114.369299,46.0051255 C115.191073,47.1388373 116.382353,48.1682654 116.382353,48.1682654 C116.382353,48.1682654 115.848223,48.0380173 115.43756,48.0509996 C115.026897,48.0639818 114.629207,48.0380173 114.424323,48.4679212 C114.218544,48.8980378 114.355655,48.8067365 114.492543,49.0544632 C114.492543,49.0544632 114.465255,48.8980378 114.478899,48.7286302 C114.478899,48.7286302 114.698098,48.7154351 114.711742,48.6113643 C114.711742,48.6113643 114.985517,48.0901591 115.793423,48.3766198 C115.793423,48.3766198 116.464665,49.1195873 116.396221,49.3671012 C116.396221,49.3671012 116.341645,49.666757 116.409642,49.666757 C116.409642,49.666757 116.300266,49.8883064 116.13609,49.7708277 C116.13609,49.7708277 116.615197,50.1617848 116.779596,49.3932785 C116.779596,49.3932785 116.478533,48.6632933 116.31391,48.5070807 C116.31391,48.5070807 116.43693,48.3898149 116.697508,48.4679212 C116.697508,48.4679212 117.300306,49.09341 117.642525,49.3671012 C117.984521,49.6407925 118.518875,49.9012887 118.792874,50.0704835 C119.066426,50.2398911 120.121043,51.2171775 120.285666,51.4780993 C120.449841,51.7385955 121.791878,54.2797102 122.093165,54.892004 C122.394452,55.5045105 123.079338,56.1297865 123.531157,56.7557009 C123.531157,56.7557009 125.037369,59.231266 124.065287,57.1987998 L121.696369,52.3119425 C121.696369,52.3119425 121.421923,51.8558613 121.88761,52.220854 L123.613468,53.3024239 C123.613468,53.3024239 124.585773,53.8757709 124.037999,52.9895731 L123.161649,51.9601449 C123.161649,51.9601449 122.709383,51.5562056 123.243514,51.8690564 L124.46253,52.5596693 C124.46253,52.5596693 125.393456,52.9374313 124.804973,52.1687122 C124.216266,51.399993 122.983382,50.6180788 122.983382,50.6180788 C122.983382,50.6180788 121.915121,49.6927215 121.572678,49.1063922 C121.572678,49.1063922 121.614058,48.7413996 121.079704,48.1029286 C120.545573,47.4644575 120.381621,47.1648018 120.203354,46.7738447 C120.025311,46.3828876 120.148778,46.1223914 119.737668,45.718452 C119.327005,45.3145127 118.464299,44.2197477 118.20372,43.8939146 C117.943813,43.5685072 117.190483,42.5912209 117.040175,42.1742993 C116.889643,41.7571649 116.83462,41.3402433 116.752308,40.8450026 C116.67022,40.3499747 116.6568,39.4378124 116.191113,38.968749 C115.725427,38.4994728 115.629247,38.4085971 115.423916,38.395402 C115.423916,38.395402 116.807332,37.8741968 116.163378,37.8871791 Z" id="bird" stroke="#0076FF" mask="url(#mask-2)"></path>
                <path d="M140.919828,109.459213 L140.912007,109.447643 C140.736515,109.200498 140.554453,108.944996 140.363319,108.659606 C139.481476,107.344175 138.664074,106.70526 137.862939,106.70526 C137.826965,106.70526 137.790365,106.705903 137.753765,106.709438 C137.362425,106.569957 136.777762,104.876576 136.631362,103.276719 C136.48809,101.710285 136.075166,99.8533193 134.925235,100.009191 C133.819725,100.159278 135.04661,104.829011 135.900612,106.890378 C135.495821,106.52657 134.58426,105.336479 134.192608,103.652097 C133.949859,102.607272 133.587299,100.670281 132.417661,100.998095 C131.610269,101.224029 132.591589,104.245696 132.951959,104.983276 C133.32234,105.873835 133.792197,106.857275 133.995218,107.363458 C134.147249,107.988231 134.1729,108.225735 134.191044,108.629717 L134.192295,108.672783 C134.197926,108.763413 134.201367,108.86015 134.210752,108.976171 C134.217321,109.025985 134.162264,109.086406 134.056531,109.146505 C133.96331,109.199212 133.874156,109.228137 133.806274,109.228137 C133.784689,109.228137 133.76592,109.225566 133.75372,109.220102 C133.176878,108.956887 132.737051,108.748308 132.441748,108.598542 L132.401707,108.582473 C131.315279,108.324722 130.309559,108.193597 129.415203,108.193597 C125.298789,108.193597 124.134468,110.9453 123.5082,112.423995 L123.46159,112.535837 L123.450641,112.572154 C123.17442,113.916831 122.999866,115.239654 122.929481,116.505271 C122.804353,116.381537 122.664522,116.231772 122.539706,116.098396 C122.077982,115.602177 121.826786,115.343783 121.600617,115.343783 C121.202395,115.343783 121,115.697307 121,116.394714 C121,117.091799 121.780802,118.452546 122.787773,119.161523 C122.999866,119.318359 123.257005,119.31643 123.521652,119.156702 C123.613308,119.098531 123.669303,119.076998 123.696831,119.069285 C124.174822,119.526617 124.577423,119.879498 124.893998,120.117645 C125.015373,120.285729 125.144881,120.452528 125.27564,120.613864 C125.478035,120.876757 125.649461,121.040021 125.80118,121.112654 C126.267909,121.321234 126.958931,121.476784 127.915225,121.590233 C128.391026,121.651939 129.097377,121.768924 129.664521,121.861804 L129.751798,121.874981 C130.037717,121.922225 130.208205,121.950507 130.309559,121.966576 L130.311436,122 L130.357107,121.99775 C130.439067,121.993572 130.524154,121.986823 130.587031,121.950507 C130.867319,121.876588 131.07253,121.708182 131.200473,121.446895 C131.436341,120.958389 131.297448,120.648895 131.138535,120.473418 C131.059704,120.388894 130.863565,120.23013 130.540421,119.98909 C130.415292,119.895246 130.251374,119.819399 130.104348,119.755122 C132.549358,120.032477 134.406265,120.33233 134.68843,120.495273 C135.00563,121.252779 135.661616,121.703361 136.64669,121.838343 C137.110291,121.838343 137.431872,121.653868 137.596728,121.290381 C137.759082,120.960639 137.623005,120.590403 137.189748,120.185136 L136.540957,119.691487 C136.321669,119.532401 136.182151,119.372351 136.095499,119.175342 C135.895294,118.875168 135.909058,118.754648 135.913437,118.733437 C135.916566,118.722831 135.92032,118.707405 135.950038,118.69005 C136.655137,118.294746 137.292979,117.668686 137.846047,116.830191 C138.353756,116.058866 138.634669,115.287541 138.679402,114.535177 C139.320373,114.492433 140.196898,113.985929 140.827546,113.564914 C141.605845,113.045555 141.999999,112.432672 141.999999,111.745229 C142.000625,110.976153 141.524198,110.306064 140.919828,109.459213" id="rabbit" stroke="#0076FF" mask="url(#mask-2)"></path>
            </g>
        </g>
    </g>
</svg>