<?xml version="1.0" encoding="UTF-8" standalone="no"?>
<svg width="54px" height="54px" viewBox="0 0 54 54" version="1.1" xmlns="http://www.w3.org/2000/svg" xmlns:xlink="http://www.w3.org/1999/xlink">
    <!-- Generator: Sketch 40.3 (33839) - http://www.bohemiancoding.com/sketch -->
    <title>footer-icon</title>
    <desc>Created with Sketch.</desc>
    <defs></defs>
    <g id="Page-1" stroke="none" stroke-width="1" fill="none" fill-rule="evenodd">
        <g id="PetStar-landingPage" transform="translate(-240.000000, -3221.000000)" fill="#FFFFFF">
            <g id="rodape-session" transform="translate(0.000000, 3197.000000)">
                <g id="footer-icon" transform="translate(240.000000, 24.000000)">
                    <g id="Combined-Shape">
                        <path d="M0,5.25141646 C0,2.35113923 2.3550352,0 5.25141646,0 L48.7485835,0 C51.6488608,0 54,2.3550352 54,5.25141646 L54,48.7485835 C54,51.6488608 51.6449648,54 48.7485835,54 L5.25141646,54 C2.35113923,54 0,51.6449648 0,48.7485835 L0,5.25141646 Z M35.859375,11.4960938 C32.465828,8.20458008 28.305216,6.5390625 23.4140625,6.5390625 C20.9003472,6.5390625 18.4810937,7.08297584 16.1367188,8.12109375 C13.7780397,9.25799785 11.8341318,10.7230599 10.3359375,12.5507813 C7.65461933,15.7385533 6.328125,19.8736205 6.328125,24.9960938 L6.328125,54 L19.1953125,54 L19.1953125,29.6367188 L15.609375,32.2734375 L17.0859375,26.3671875 L12.7617188,22.5703125 L18.2460938,22.2539063 L20.1445313,16.5585938 L22.1484375,22.2539063 L27.6328125,22.4648438 L23.3085938,26.3671875 L24.7851563,32.2734375 L21.09375,29.53125 C21.114237,29.5302132 21.114237,38.7123417 21.09375,40.8164063 C22.3408741,40.9492366 23.2896751,41.0029018 23.9414063,41.0273438 C28.5540715,41.0029018 32.5222143,39.303291 35.859375,35.859375 C39.2375328,32.483066 40.921875,28.4272339 40.921875,23.7304688 C40.921875,18.9104867 39.2261925,14.8436059 35.859375,11.4960938 Z"></path>
                    </g>
                </g>
            </g>
        </g>
    </g>
</svg>