<?xml version="1.0" encoding="UTF-8" standalone="no"?>
<svg width="130px" height="180px" viewBox="0 0 130 180" version="1.1" xmlns="http://www.w3.org/2000/svg" xmlns:xlink="http://www.w3.org/1999/xlink">
    <!-- Generator: Sketch 40.3 (33839) - http://www.bohemiancoding.com/sketch -->
    <title>logo-topBanner</title>
    <desc>Created with Sketch.</desc>
    <defs>
        <path d="M98.4689541,129.950082 C94.8713952,126.283359 89.9684571,124.456166 83.7485812,124.456166 C78.1608065,124.456166 73.4160743,126.415428 69.5288325,130.32089 C67.920767,131.929662 66.650063,133.685742 65.705162,135.583323 L65.705162,125.806605 L50.7854063,125.806605 L50.7854063,110.953221 L27.4807379,110.953221 C21.770155,110.953221 16.8556584,113.49881 12.7524186,117.697437 C8.63400835,121.880824 6.58238843,126.87912 6.58238843,132.677085 C6.58238843,137.490339 7.94483743,142.28908 10.654565,147.102334 C12.3543754,150.131934 13.1966954,152.100629 13.1966954,152.992457 C13.1966954,154.377002 12.6606736,155.530064 11.6038004,156.453094 C10.5324792,157.36016 9.21554145,157.821675 7.62336882,157.821675 C6.27609025,157.821675 4.7294289,157.252763 3,156.130179 L3,173.939146 C5.87804709,175.307727 8.77198701,176 11.7114382,176 C17.8200643,176 22.9953477,173.923908 27.2358438,169.786962 C31.4770623,165.650016 33.5893639,160.59004 33.5893639,154.622998 C33.5893639,150.531768 32.3338303,146.302665 29.8075927,141.919723 L28.4148029,139.489512 C27.3275888,137.597735 26.791567,136.044839 26.791567,134.814132 C26.791567,133.368632 27.2820775,132.13865 28.2768242,131.123462 C29.2571229,130.093035 30.4512524,129.585804 31.8288718,129.585804 L35.603419,129.585804 L35.603419,143.002396 C35.603419,148.497038 36.7108603,152.917714 38.9250205,156.240478 C40.6775663,158.848474 42.9971971,160.913681 45.8961938,162.4361 C48.7821873,163.95852 51.8661188,164.72626 55.1342626,164.72626 C55.4904065,164.72626 56.8167354,164.72626 57.5673105,164.713198 L57.5673105,149.475944 C55.010732,149.475944 53.245183,148.89397 52.2829444,147.728572 C51.3207058,146.5639 50.8468105,144.20698 50.8468105,141.136018 L63.9461146,141.136018 C63.7705711,142.249895 63.6773813,143.400054 63.6773813,144.591576 C63.6773813,150.362691 65.6011362,155.154902 69.4623716,158.981268 C73.3243293,162.806909 78.1340777,164.72626 83.9197903,164.72626 C84.666031,164.72626 85.5090734,164.729163 86.3643966,164.72626 L86.3643966,149.853283 C85.5184646,150.237879 84.6169077,150.429451 83.6691171,150.429451 C82.1405157,150.429451 80.8755909,149.912787 79.8736202,148.880183 C78.8853751,147.847579 78.384751,146.523989 78.384751,144.922473 C78.384751,143.400054 78.9381104,142.089525 80.0318261,140.9771 C81.1255418,139.8654 82.4301987,139.30955 83.9327936,139.30955 C85.5935943,139.30955 86.9242577,139.918373 87.8994995,141.122956 C88.8877446,142.340601 89.3753655,143.968966 89.3753655,146.00805 L89.3753655,164.72626 L103.845788,164.72626 L103.845788,144.961659 C103.845788,138.620906 102.05351,133.616805 98.4689541,129.950082 L98.4689541,129.950082 Z M128,124.866885 L128,140.381339 C126.998029,139.825489 126.089248,139.547564 125.27149,139.547564 C122.662176,139.547564 121.357519,141.559799 121.357519,145.584269 L121.357519,164.72626 L106.88782,164.72626 L106.88782,142.791231 C106.88782,137.204432 108.403418,132.756181 111.447617,129.433417 C114.478813,126.111379 118.537264,124.456166 123.598408,124.456166 C124.731134,124.456166 126.193997,124.588234 128,124.866885 L128,124.866885 Z M87.3952634,85.821692 C82.1585758,85.821692 77.7418137,87.6155053 74.1341413,91.190796 C70.5387496,94.7668124 68.7406926,99.1541084 68.7406926,104.341799 C68.7406926,109.565773 70.5264688,113.929122 74.0857404,117.468856 C77.6457344,120.995528 82.0494932,122.765395 87.2746223,122.765395 C91.5700209,122.765395 95.4796572,121.371416 98.9912503,118.595795 L91.4616607,109.493208 C90.2429696,110.826232 88.9635967,111.493106 87.6481038,111.493106 C86.0198111,111.493106 84.7043182,110.778338 83.7030699,109.359687 C82.7010992,107.929426 82.2062543,106.075383 82.2062543,103.772162 C82.2062543,101.566178 82.7256609,99.7484179 83.7630292,98.342103 C84.80112,96.9241777 86.1397298,96.2210203 87.7933065,96.2210203 C90.2668088,96.2210203 91.7390628,97.5547699 92.2093461,100.220818 L85.8514916,100.220818 C85.4534485,101.348482 85.2482865,102.511703 85.2482865,103.687261 C85.2482865,104.535549 85.3927667,105.457127 85.6701689,106.475218 L105.349827,106.475218 C105.458187,105.335943 105.518869,104.511602 105.518869,103.990583 C105.518869,98.8631217 103.780771,94.560727 100.294462,91.069612 C96.8189893,87.5668866 92.5113099,85.821692 87.3952634,85.821692 L87.3952634,85.821692 Z M53.8209369,122.765395 L65.705162,122.765395 L65.6993828,58.0248409 L57.3953789,64.2581973 L60.7697158,50.3692053 L50.7030526,41.5111632 L63.5422923,40.8130854 L67.9554423,27.3558567 L72.5159622,40.8130854 L85.3089682,41.3544223 L75.2885387,50.3692053 L78.7827941,64.1609599 L70.1349272,57.8194812 L70.1349272,84.27968 C72.9992487,84.5496228 75.2155761,84.6751607 76.7636823,84.6751607 C87.5094028,84.6751607 96.7763677,80.6971328 104.617312,72.7142279 C112.458979,64.7313229 116.392455,55.2376091 116.392455,44.2577586 C116.392455,32.9600722 112.43225,23.4395093 104.537848,15.6684949 C96.6441682,7.89820612 86.9285921,4 75.4171261,4 C69.6350255,4 63.9851243,5.27279478 58.4941514,7.81910998 C53.0024562,10.3646995 48.4621635,13.794134 44.8971127,18.0820156 C38.7017985,25.5344685 35.603419,35.2146751 35.603419,47.0957862 L35.603419,107.904754 L53.8209369,107.904754 L53.8209369,122.765395 Z M128,108.802386 L128,122.753059 C127.312274,122.765395 126.805148,122.765395 126.479345,122.765395 C123.487159,122.765395 120.663292,122.062237 118.020747,120.668259 C115.366645,119.27428 113.242785,117.383955 111.637609,114.995832 C109.610551,111.953896 108.597021,107.90548 108.597021,102.875255 L108.597021,73.7497342 L121.845863,73.7497342 L121.845863,87.3484652 L127.782557,87.3484652 L127.782557,101.384765 L121.845863,101.384765 C121.845863,104.196669 122.280748,106.135613 123.161356,107.202322 C124.041963,108.269032 125.658697,108.802386 128,108.802386 L128,108.802386 Z" id="path-1"></path>
        <filter x="-50%" y="-50%" width="200%" height="200%" filterUnits="objectBoundingBox" id="filter-2">
            <feOffset dx="0" dy="2" in="SourceAlpha" result="shadowOffsetOuter1"></feOffset>
            <feGaussianBlur stdDeviation="1.5" in="shadowOffsetOuter1" result="shadowBlurOuter1"></feGaussianBlur>
            <feColorMatrix values="0 0 0 0 0   0 0 0 0 0   0 0 0 0 0  0 0 0 0.2 0" type="matrix" in="shadowBlurOuter1"></feColorMatrix>
        </filter>
    </defs>
    <g id="Symbols" stroke="none" stroke-width="1" fill="none" fill-rule="evenodd">
        <g id="logo-topBanner">
            <g>
                <use fill="black" fill-opacity="1" filter="url(#filter-2)" xlink:href="#path-1"></use>
                <use fill="#FFFFFF" fill-rule="evenodd" xlink:href="#path-1"></use>
            </g>
        </g>
    </g>
</svg>