<?xml version="1.0" encoding="UTF-8" standalone="no"?>
<svg width="36px" height="36px" viewBox="0 0 36 36" version="1.1" xmlns="http://www.w3.org/2000/svg" xmlns:xlink="http://www.w3.org/1999/xlink">
    <!-- Generator: Sketch 40.3 (33839) - http://www.bohemiancoding.com/sketch -->
    <title>social-instagram</title>
    <desc>Created with Sketch.</desc>
    <defs>
        <rect id="path-1" x="0" y="0" width="36.0506329" height="36" rx="4.5"></rect>
    </defs>
    <g id="Symbols" stroke="none" stroke-width="1" fill="none" fill-rule="evenodd">
        <g id="social-instagram">
            <g>
                <mask id="mask-2" fill="white">
                    <use xlink:href="#path-1"></use>
                </mask>
                <use id="Mask" fill="#FFFFFF" xlink:href="#path-1"></use>
                <path d="M18.0142483,14.4118421 C16.0393693,14.4118421 14.4313213,16.0168421 14.4313213,17.9889474 C14.4313213,19.9618421 16.0393693,21.5676316 18.0142483,21.5676316 C19.9899178,21.5676316 21.5971752,19.9618421 21.5971752,17.9889474 C21.5971752,16.0168421 19.9899178,14.4118421 18.0142483,14.4118421 L18.0142483,14.4118421 Z M18.0142483,14.4118421 C16.0393693,14.4118421 14.4313213,16.0168421 14.4313213,17.9889474 C14.4313213,19.9618421 16.0393693,21.5676316 18.0142483,21.5676316 C19.9899178,21.5676316 21.5971752,19.9618421 21.5971752,17.9889474 C21.5971752,16.0168421 19.9899178,14.4118421 18.0142483,14.4118421 L18.0142483,14.4118421 Z M23.9831579,8.57842105 L12.0461292,8.57842105 C10.1408217,8.57842105 8.59048634,10.1265789 8.59048634,12.0292105 L8.59048634,23.9494737 C8.59048634,25.8521053 10.1408217,27.4002632 12.0461292,27.4002632 L23.9831579,27.4002632 C25.8884655,27.4002632 27.4388008,25.8521053 27.4388008,23.9494737 L27.4388008,12.0292105 C27.4388008,10.1265789 25.8884655,8.57842105 23.9831579,8.57842105 L23.9831579,8.57842105 Z M18.0142483,24.1855263 C14.5933911,24.1855263 11.8097446,21.4057895 11.8097446,17.9889474 C11.8097446,14.5728947 14.5933911,11.7931579 18.0142483,11.7931579 C21.4358961,11.7931579 24.2195425,14.5728947 24.2195425,17.9889474 C24.2195425,21.4057895 21.4358961,24.1855263 18.0142483,24.1855263 L18.0142483,24.1855263 Z M24.4187697,13.0744737 C23.6092116,13.0744737 22.9506551,12.4168421 22.9506551,11.6084211 C22.9506551,10.8 23.6092116,10.1423684 24.4187697,10.1423684 C25.2283278,10.1423684 25.8868843,10.8 25.8868843,11.6084211 C25.8868843,12.4168421 25.2283278,13.0744737 24.4187697,13.0744737 L24.4187697,13.0744737 Z M18.0142483,14.4118421 C16.0393693,14.4118421 14.4313213,16.0168421 14.4313213,17.9889474 C14.4313213,19.9618421 16.0393693,21.5676316 18.0142483,21.5676316 C19.9899178,21.5676316 21.5971752,19.9618421 21.5971752,17.9889474 C21.5971752,16.0168421 19.9899178,14.4118421 18.0142483,14.4118421 L18.0142483,14.4118421 Z M23.9831579,8.57842105 L12.0461292,8.57842105 C10.1408217,8.57842105 8.59048634,10.1265789 8.59048634,12.0292105 L8.59048634,23.9494737 C8.59048634,25.8521053 10.1408217,27.4002632 12.0461292,27.4002632 L23.9831579,27.4002632 C25.8884655,27.4002632 27.4388008,25.8521053 27.4388008,23.9494737 L27.4388008,12.0292105 C27.4388008,10.1265789 25.8884655,8.57842105 23.9831579,8.57842105 L23.9831579,8.57842105 Z M18.0142483,24.1855263 C14.5933911,24.1855263 11.8097446,21.4057895 11.8097446,17.9889474 C11.8097446,14.5728947 14.5933911,11.7931579 18.0142483,11.7931579 C21.4358961,11.7931579 24.2195425,14.5728947 24.2195425,17.9889474 C24.2195425,21.4057895 21.4358961,24.1855263 18.0142483,24.1855263 L18.0142483,24.1855263 Z M24.4187697,13.0744737 C23.6092116,13.0744737 22.9506551,12.4168421 22.9506551,11.6084211 C22.9506551,10.8 23.6092116,10.1423684 24.4187697,10.1423684 C25.2283278,10.1423684 25.8868843,10.8 25.8868843,11.6084211 C25.8868843,12.4168421 25.2283278,13.0744737 24.4187697,13.0744737 L24.4187697,13.0744737 Z M18.0142483,14.4118421 C16.0393693,14.4118421 14.4313213,16.0168421 14.4313213,17.9889474 C14.4313213,19.9618421 16.0393693,21.5676316 18.0142483,21.5676316 C19.9899178,21.5676316 21.5971752,19.9618421 21.5971752,17.9889474 C21.5971752,16.0168421 19.9899178,14.4118421 18.0142483,14.4118421 L18.0142483,14.4118421 Z M0,0 L0,35.9786842 L36.0292871,35.9786842 L36.0292871,0 L0,0 L0,0 Z M30.0603775,23.9494737 C30.0603775,27.2960526 27.3344437,30.0181579 23.9831579,30.0181579 L12.0461292,30.0181579 C8.69484344,30.0181579 5.96890962,27.2960526 5.96890962,23.9494737 L5.96890962,12.0292105 C5.96890962,8.68263158 8.69484344,5.96052632 12.0461292,5.96052632 L23.9831579,5.96052632 C27.3344437,5.96052632 30.0603775,8.68263158 30.0603775,12.0292105 L30.0603775,23.9494737 L30.0603775,23.9494737 Z M23.9831579,8.57842105 L12.0461292,8.57842105 C10.1408217,8.57842105 8.59048634,10.1265789 8.59048634,12.0292105 L8.59048634,23.9494737 C8.59048634,25.8521053 10.1408217,27.4002632 12.0461292,27.4002632 L23.9831579,27.4002632 C25.8884655,27.4002632 27.4388008,25.8521053 27.4388008,23.9494737 L27.4388008,12.0292105 C27.4388008,10.1265789 25.8884655,8.57842105 23.9831579,8.57842105 L23.9831579,8.57842105 Z M18.0142483,24.1855263 C14.5933911,24.1855263 11.8097446,21.4057895 11.8097446,17.9889474 C11.8097446,14.5728947 14.5933911,11.7931579 18.0142483,11.7931579 C21.4358961,11.7931579 24.2195425,14.5728947 24.2195425,17.9889474 C24.2195425,21.4057895 21.4358961,24.1855263 18.0142483,24.1855263 L18.0142483,24.1855263 Z M24.4187697,13.0744737 C23.6092116,13.0744737 22.9506551,12.4168421 22.9506551,11.6084211 C22.9506551,10.8 23.6092116,10.1423684 24.4187697,10.1423684 C25.2283278,10.1423684 25.8868843,10.8 25.8868843,11.6084211 C25.8868843,12.4168421 25.2283278,13.0744737 24.4187697,13.0744737 L24.4187697,13.0744737 Z M18.0142483,14.4118421 C16.0393693,14.4118421 14.4313213,16.0168421 14.4313213,17.9889474 C14.4313213,19.9618421 16.0393693,21.5676316 18.0142483,21.5676316 C19.9899178,21.5676316 21.5971752,19.9618421 21.5971752,17.9889474 C21.5971752,16.0168421 19.9899178,14.4118421 18.0142483,14.4118421 L18.0142483,14.4118421 Z M18.0142483,14.4118421 C16.0393693,14.4118421 14.4313213,16.0168421 14.4313213,17.9889474 C14.4313213,19.9618421 16.0393693,21.5676316 18.0142483,21.5676316 C19.9899178,21.5676316 21.5971752,19.9618421 21.5971752,17.9889474 C21.5971752,16.0168421 19.9899178,14.4118421 18.0142483,14.4118421 L18.0142483,14.4118421 Z M18.0142483,14.4118421 C16.0393693,14.4118421 14.4313213,16.0168421 14.4313213,17.9889474 C14.4313213,19.9618421 16.0393693,21.5676316 18.0142483,21.5676316 C19.9899178,21.5676316 21.5971752,19.9618421 21.5971752,17.9889474 C21.5971752,16.0168421 19.9899178,14.4118421 18.0142483,14.4118421 L18.0142483,14.4118421 Z M23.9831579,8.57842105 L12.0461292,8.57842105 C10.1408217,8.57842105 8.59048634,10.1265789 8.59048634,12.0292105 L8.59048634,23.9494737 C8.59048634,25.8521053 10.1408217,27.4002632 12.0461292,27.4002632 L23.9831579,27.4002632 C25.8884655,27.4002632 27.4388008,25.8521053 27.4388008,23.9494737 L27.4388008,12.0292105 C27.4388008,10.1265789 25.8884655,8.57842105 23.9831579,8.57842105 L23.9831579,8.57842105 Z M18.0142483,24.1855263 C14.5933911,24.1855263 11.8097446,21.4057895 11.8097446,17.9889474 C11.8097446,14.5728947 14.5933911,11.7931579 18.0142483,11.7931579 C21.4358961,11.7931579 24.2195425,14.5728947 24.2195425,17.9889474 C24.2195425,21.4057895 21.4358961,24.1855263 18.0142483,24.1855263 L18.0142483,24.1855263 Z M24.4187697,13.0744737 C23.6092116,13.0744737 22.9506551,12.4168421 22.9506551,11.6084211 C22.9506551,10.8 23.6092116,10.1423684 24.4187697,10.1423684 C25.2283278,10.1423684 25.8868843,10.8 25.8868843,11.6084211 C25.8868843,12.4168421 25.2283278,13.0744737 24.4187697,13.0744737 L24.4187697,13.0744737 Z M18.0142483,14.4118421 C16.0393693,14.4118421 14.4313213,16.0168421 14.4313213,17.9889474 C14.4313213,19.9618421 16.0393693,21.5676316 18.0142483,21.5676316 C19.9899178,21.5676316 21.5971752,19.9618421 21.5971752,17.9889474 C21.5971752,16.0168421 19.9899178,14.4118421 18.0142483,14.4118421 L18.0142483,14.4118421 Z M18.0142483,14.4118421 C16.0393693,14.4118421 14.4313213,16.0168421 14.4313213,17.9889474 C14.4313213,19.9618421 16.0393693,21.5676316 18.0142483,21.5676316 C19.9899178,21.5676316 21.5971752,19.9618421 21.5971752,17.9889474 C21.5971752,16.0168421 19.9899178,14.4118421 18.0142483,14.4118421 L18.0142483,14.4118421 Z M18.0142483,14.4118421 C16.0393693,14.4118421 14.4313213,16.0168421 14.4313213,17.9889474 C14.4313213,19.9618421 16.0393693,21.5676316 18.0142483,21.5676316 C19.9899178,21.5676316 21.5971752,19.9618421 21.5971752,17.9889474 C21.5971752,16.0168421 19.9899178,14.4118421 18.0142483,14.4118421 L18.0142483,14.4118421 Z M23.9831579,8.57842105 L12.0461292,8.57842105 C10.1408217,8.57842105 8.59048634,10.1265789 8.59048634,12.0292105 L8.59048634,23.9494737 C8.59048634,25.8521053 10.1408217,27.4002632 12.0461292,27.4002632 L23.9831579,27.4002632 C25.8884655,27.4002632 27.4388008,25.8521053 27.4388008,23.9494737 L27.4388008,12.0292105 C27.4388008,10.1265789 25.8884655,8.57842105 23.9831579,8.57842105 L23.9831579,8.57842105 Z M18.0142483,24.1855263 C14.5933911,24.1855263 11.8097446,21.4057895 11.8097446,17.9889474 C11.8097446,14.5728947 14.5933911,11.7931579 18.0142483,11.7931579 C21.4358961,11.7931579 24.2195425,14.5728947 24.2195425,17.9889474 C24.2195425,21.4057895 21.4358961,24.1855263 18.0142483,24.1855263 L18.0142483,24.1855263 Z M24.4187697,13.0744737 C23.6092116,13.0744737 22.9506551,12.4168421 22.9506551,11.6084211 C22.9506551,10.8 23.6092116,10.1423684 24.4187697,10.1423684 C25.2283278,10.1423684 25.8868843,10.8 25.8868843,11.6084211 C25.8868843,12.4168421 25.2283278,13.0744737 24.4187697,13.0744737 L24.4187697,13.0744737 Z M18.0142483,14.4118421 C16.0393693,14.4118421 14.4313213,16.0168421 14.4313213,17.9889474 C14.4313213,19.9618421 16.0393693,21.5676316 18.0142483,21.5676316 C19.9899178,21.5676316 21.5971752,19.9618421 21.5971752,17.9889474 C21.5971752,16.0168421 19.9899178,14.4118421 18.0142483,14.4118421 L18.0142483,14.4118421 Z" id="instagram" fill="#C536A4" mask="url(#mask-2)"></path>
            </g>
        </g>
    </g>
</svg>