<?xml version="1.0" encoding="UTF-8" standalone="no"?>
<svg width="36px" height="36px" viewBox="0 0 36 36" version="1.1" xmlns="http://www.w3.org/2000/svg" xmlns:xlink="http://www.w3.org/1999/xlink">
    <!-- Generator: Sketch 40.3 (33839) - http://www.bohemiancoding.com/sketch -->
    <title>social-gPlus</title>
    <desc>Created with Sketch.</desc>
    <defs>
        <rect id="path-1" x="0" y="0" width="36.0506329" height="36" rx="4.5"></rect>
    </defs>
    <g id="Symbols" stroke="none" stroke-width="1" fill="none" fill-rule="evenodd">
        <g id="social-gPlus">
            <g>
                <mask id="mask-2" fill="white">
                    <use xlink:href="#path-1"></use>
                </mask>
                <use id="Mask" fill="#FFFFFF" xlink:href="#path-1"></use>
                <path d="M0,0 L0,35.9786842 L36.0292871,35.9786842 L36.0292871,0 L0,0 L0,0 Z M21.0034466,19.5029211 C20.3873444,23.5445526 17.3698432,25.8615789 13.4631721,25.8615789 C9.07297979,25.8615789 5.51369132,22.3072895 5.51369132,17.9232632 C5.51369132,13.5403421 9.07297979,9.98605263 13.4631721,9.98605263 C15.586839,9.98605263 17.4476367,10.7428421 18.8020653,12.0565263 L16.5206769,14.3347105 C15.7480391,13.5573947 14.690712,13.1430789 13.4631721,13.1430789 C10.8789109,13.1430789 8.78378414,15.3436579 8.78378414,17.9231842 C8.78378414,20.505 10.8789109,22.6417105 13.4631721,22.6417105 C15.6291352,22.6417105 17.26936,21.5962105 17.7425245,19.5029211 L13.4631721,19.5029211 L13.4631721,16.3150263 L20.9840773,16.3150263 C21.074362,16.8286579 21.1200577,17.3662105 21.1200577,17.9231842 C21.1199787,18.4756579 21.0799751,19.0018421 21.0034466,19.5029211 L21.0034466,19.5029211 Z M30.54967,18.5145 L27.7642052,18.5145 L27.7642052,21.2948684 L25.7856895,21.2948684 L25.7856895,18.5145 L23.0002247,18.5145 L23.0002247,16.5375789 L25.7856895,16.5375789 L25.7856895,13.7560263 L27.7642052,13.7560263 L27.7642052,16.5375789 L30.54967,16.5375789 L30.54967,18.5145 L30.54967,18.5145 Z" id="gPlus" fill="#DD4B39" mask="url(#mask-2)"></path>
            </g>
        </g>
    </g>
</svg>